<svg xmlns="http://www.w3.org/2000/svg" viewBox="0 0 299.71 80.53"><title>ICON</title><g id="Layer_2" data-name="Layer 2"><g id="Layer_1-2" data-name="Layer 1"><path d="M160.9,75.43c.22.16.42.41.66.46a9.41,9.41,0,0,0,1.43,0,2.09,2.09,0,0,1-2.74.86,7.64,7.64,0,0,0-2.12-.45c-.19,0-.42.28-.68.46l1,1.21c-.57-.18-.74,1.11-1.52.16-.57.81-1.16.34-1.7-.17l-.81,1.44.91-.31.19.3c-.54.39-1.05,1-1.64,1.09s-1-.5-1.56-.8l-.14.83-1.55-1-.64.57-1.4-.26V80L147,79a.62.62,0,0,0,.14-.21,3.94,3.94,0,0,0,0-.6,1.85,1.85,0,0,0-.52,0c-.94.27-.73,1.06-.78,1.77-.48-.78-1.53-1.22-1-2.48.11-.29-.53-.86-.82-1.3l-.34,0-.3,1.18c-.46-.22-1-.4-.77-1.23,0-.12-.31-.34-.48-.51s-.42-.27-.42-.4.18-.39.3-.58.32-.45.48-.67l1.24,1.1.21-.17-.45-1.7-.3-.15-.7,1c-.5-.68.2-1,.43-1.51.32-.64.93-1.21.19-2,1.43-.27.84-2.34,2.45-2.45V65.21l.85.2L146,64.2l1,.57c-.15-1.4.35-1.95,1.73-2.06L148.6,62c1-1.87,3.09-2.8,3.35-5a16.68,16.68,0,0,1,1.75-2.33c1-.91,0-2,.6-3l.77-.13.09.16-.78.7,1.68-.28-.38-.5,1-.87-.46-.62,1.74-.43a1.6,1.6,0,0,1,.91-1.85c.23-.11.18-.78.29-1.4.59-.11,1.58-.19,1.32-1.14.57-.63,1-1,1.37-1.53.55-.74,1.05-1.52,1.6-2.26.05-.06.32,0,.49.06l.22-1.92c-.37.32-.66.74-1,.86a1.8,1.8,0,0,1-1.69-.54c-.37-.31-.8-.6-1.14.18-.12.28-.75.33-1.25.51V39.52l-1.75,1.85,1.63-.24.24,1,1-.71.25.33c-.44.32-.85.83-1.33.91s-1-.29-1.46-.46v1.06l-.21.07L156,40.69l-1.61,2.89-1.24-.35c.66.59.91,1.15.21,1.79a.76.76,0,0,1-.73,0c-.15-.1-.13-.45-.25-1l-.73,1.2.54.5-.89.8-1.08-1-.32.22.68,1.29c-.58-.1-.9-1.32-1.63-.51-.27.3-.14,1,0,1.57-.8.63-1.57-.57-2.14-.32l-1.46,1.51a3.82,3.82,0,0,0-.56.58c-.4.62-.73.48-1.17-.3-.46,2.18-2.21,2.61-4,3.42a4.68,4.68,0,0,1,.24-1.1c0-.08.54.16.73.07a1.72,1.72,0,0,0,.85-.89l1.05-.43h-2.12v-.22c-.38.35-.78.67-1.12,1.05a.76.76,0,0,0-.17.63c.51,1.09-.05,1.12-.94.83-.05.88-.26,1.5-1.28,1.53-.66,0-1-.19-1.1-.79a4.4,4.4,0,0,0-.43-.87l-.39.15a6.31,6.31,0,0,1,.28,1.18,1.49,1.49,0,0,1-.27,1c-.15.17-.57.1-.72.12l.2-1.13L134,54c-.13.56-.23,1.12-.4,1.67-.07.22-.22.52-.41.59a5.73,5.73,0,0,1-3.2.23c-.34-.07-.6-.53-.9-.82v.9l1.25,1.14c-1.09,1-1.29-.45-2-.45a1.36,1.36,0,0,1-2,.48c.14.68.2,1.25,1.06,1.06.22,0,.48.12.72.19-.17.19-.3.46-.52.58-.89.51-1.32.51-1.87.16l-4,3.21-.2-.15.71-.82-.64-1.18a2.32,2.32,0,0,1-.27.7,10.68,10.68,0,0,1-.89.89,13.89,13.89,0,0,1-.73-1.3,3.21,3.21,0,0,0-.32-.91c-.07.56-.4,1.43-.16,1.62.71.6.3,1.08.12,1.62l-1.75-.18c-.42.8.17,2.32-1.51,2.24a4.6,4.6,0,0,1-1.16-.47,13.91,13.91,0,0,1-1.21.87.73.73,0,0,1-.69-.06,4.71,4.71,0,0,1-.56-1l-.53.33c0,.37-.06.89.14,1.06a5.8,5.8,0,0,0,1.43.63c-.34.75-1.41.68-2.33-.47-.07.7-1.24.7-.8,1.64-.28,0-.62.2-.85.1a9.05,9.05,0,0,1-1.36-.84l.55,1.51-2-.75c-.5.75-.21,1.37.91,1.84l-1.67.51c0-.24.06-.47.07-.71s0-.46-.09-.53a.77.77,0,0,0-.58,0c-.41.1-.8.26-1.19.39.61.16.87,1.18,1.81.85l-1.32.69c-.28-1-.78-1.39-1-.83,0,.14.15.35.16.54a2.27,2.27,0,0,1-.11.53l-1.32-.74.81-2.52c-1.26.55-1.58,1.62-.86,3.16-1.12.07-1.1-1-1.48-1.66-.59,1-.38,1.4.93,2l-1.29,1,.16-.83-1.43-.47.53,1.32-1.88-.44-.27,1.53,1.79-.73c-.69,1.49-2.25,1.15-3.18,1.86-.71-.14-.85-1.77-2.09-.6-.12-.23-.45-.56-.38-.75s.48-.41.75-.59.5-.26.75-.39l-.09-.36c-.4,0-1-.11-1.16.1a2.84,2.84,0,0,0-.72,1.61c0,.51.42,1,.67,1.6-1.27,1.1-1.08-1.11-1.94-1-.47,1.31-.37,1.67.58,2a3.11,3.11,0,0,1-3.41-.17l.58,1.28-.73.15-1-.91-.28.22.28.89c-.25,0-.56.09-.66,0s-.16-.53-.33-.73a2.89,2.89,0,0,0-.71-.46l-.38.82c-1,0-2.19-1.22-3.3.11,0-.4.06-.87-.08-.95-.75-.43-.34-.87-.19-1.41a1.44,1.44,0,0,0-.31-1.13c-.15-.17-.65,0-1.25,0,1.23,1.1.36,2,.34,2.81l-.46-2.11-.82,1h-.31c0-.49,0-1,0-1.49a4.26,4.26,0,0,1,.15-.69,5.72,5.72,0,0,0-.72-.14,5.58,5.58,0,0,0-.71,0v-.32l.77.09.09-1.38c-.83,0-1.45-.21-1.34-1.22.84.31,1.25.06.91-.94a.3.3,0,0,1,0-.21A32.4,32.4,0,0,1,79.89,66c.4-.83,1.27-.9,2.35-.49l-1-.92,2.88-2.46a5,5,0,0,1,1.8-2.64,9.18,9.18,0,0,0,1.36-2.35c.71.39,1,.08,1.38-.77a5.81,5.81,0,0,1,1.44-1.68c.63-.64,1.3-1.25,2-1.92l-.34-.8,1.39.25.62.1a1.66,1.66,0,0,1-.13-.59A3.22,3.22,0,0,1,94,50.3c.3-.38.89-.52,1.34-.79a.64.64,0,0,0,.26-.36c.45-1.44,1.23-1.74,2.64-.9l.13-1-.79.35v-1a3,3,0,0,1-.86.17c-.82-.06-1.62-.19-2.43-.28-.24,0-.49,0-.73,0s-.53-.12-.8-.14a1,1,0,0,0-.63.11.58.58,0,0,0-.09.56.94.94,0,0,0,.6.3,10.16,10.16,0,0,1,1.84.15l-3.65,1.61-.91-.75c.61-1.84-1.37-2-2.47-2.73l1.95,2,.35,2.08-1-.17-.24-1.18c-.67.53-.9,1.07-.19,1.81l-1.57.46c-.2-.58-.21-1.13.91-1.23l-.77-.67-1.49,2.55c-1.29-1.12-1.4.49-2.17,1V50.69c-1.06,1.13-1.62,1.25-2.53.53l-.76.7,1.41.5,1.37-.58A2,2,0,0,1,79.85,53L78,53.74l.48-.57-.63-.73L76.44,53.9l1.21.13.4.54-4,1.75-.14-.24,1.16-.86c-1.22-.46-2.1.24-1.88,1.72l-1.92-.68c-.45.27-.46.48.28,1.34a14.12,14.12,0,0,1-2.49.51c-.44,0-.9-.41-1.41-.67,0,.4-1.15.92-.14,1.63-1.23.63-2.54,1.37-3.82.32-2.14.83-3.17,3.46-5.77,3.24.12-.38.25-.76.34-1.16,0,0-.23-.23-.3-.21a6.26,6.26,0,0,0-.8.35l.24.31-.63-.55c-.08.08-.23.16-.22.21.11.47.25.93.4,1.46l-2.18.41c-.31.49-.65,1.58-2,1.09-.18-.66-.37-1.32-.56-2l-.36,0c0,.32-.25.75-.12.94.27.39.24,1.2,1.07,1-.06.16-.09.42-.19.46-.67.24-1.35.44-2,.65a4.76,4.76,0,0,0,.5-.87,3.68,3.68,0,0,0,.09-.82l-.75-.06-.09,1.65c-.87-.58-1.42-.3-1.68.75l-.26,0-.6-1.86-.73.7.74,1.09-1,.88c-.22-.7.16-1.53-.66-2.23,0,.78,0,1.25,0,1.71s-.09.81-.72.48c-.17-.09-.55.21-.82.34s-.79.56-1.13.52a2.37,2.37,0,0,0-2.19.56c-.77.82-1.49.27-2.18,0-.28-.11-.4-.63-.66-1.09l-.5.55.86,1.85-.42.27L37,68.39l-1.1,1,1.55.7c-1.23.1-2.21.87-3.33.24l-.48.89-.13-.38-1.7-.1c.33-.67.66-1.34,1-2-.9,0-1.25.81-1,2l.51.35c-.16.17-.29.43-.49.48a.75.75,0,0,1-.6-.24c-.13-.18,0-.54-.19-.68s-.6-.46-.78-.38a8.17,8.17,0,0,0-1.4.94l.28,1.3H27.39c-.76-.58-.62-2-2.14-2.27.56.79.93,1.38,1.38,1.9.17.19.52.23.79.34l-.53.75-.82-.66v.5l-3.58.36-.1,1-.34-.55L19.6,75.32a8.42,8.42,0,0,0-.25-1,2.39,2.39,0,0,0-.48.09l.21,1c-.64-.27-1.16-.46-1.65-.71s-.93-.57-1.34-.83l-.81.67,1.26.45,0,.35-2.37.79L13.1,74.51l-.46,1,1,.42-1.79,1.38-.33-.2c1.1-.73.4-1.16-.25-1.77.56,1.71-.19,1.72-1.5,1.68-1.59,0-1.82.06-2.1-1-.07,0-.17,0-.2,0-.84,1-1.05,1-2-.23-.53-.65-1.14-1.23-1.86-2l-.14,1.75a2.55,2.55,0,0,1-.72-1.9c.07-.78.19-1.56.3-2.44-1.13,0-1.87,1.55-3,.5L2,70l-.34-.46L3,68.91,1.73,68.2l2-.24-.26-.65.65-.51,1,1,.48-2.38.91.79a11.19,11.19,0,0,0,1.8-.29A1.41,1.41,0,0,0,9,65.16a3.46,3.46,0,0,0,0-1.15l.68.58c1.09-.84,1.09-.84,1.86.64l1.67-1.91c-.14,1.43.59,1,1.47.74a3.11,3.11,0,0,1,2.5.37A.75.75,0,0,0,18.45,64l-1.67-.29a5.8,5.8,0,0,1,1.74-.84c.29,0,.62.61.93.95l.29-.26L18.3,61.67l.13-.16,1.91,1.33,1-.55.12-.9.62.35,3.4-1.28.17.22-.65.89,1.76-.19L26.71,61l-.64.19.06-.85.9-.7,0-.38,1.41.55a.43.43,0,0,0,.27,0c1-.39,2-.78,3-1.19.6-.24,1.18-.52,1.86-.83v-.51l.24-.19,1.36,1.39a34.86,34.86,0,0,1,3-1.92c.35-.19.94.07,1.44.24l2.91.33-.33-1-.88.23-1.11-.93c.43-.2.83-.42,1.24-.57a11.32,11.32,0,0,1,1.24-.28c.66.84,2,.85,3.32-1.35l1.25,1.28,1.54-1.38c-.2-1,1.13-.33,1.54-.87l-.09-.75.22,0,.28.87H51l.29-.72.73.13-.26,1.28,2.68-1.86,0,.08L56.12,50c1,.88,1.4.79,1.94-.28,1.32.46,1.39-.62,1.65-1.23.28.19.69.64.88.56a9,9,0,0,0,1.53-1.08l6.23-3,1,.88.17-.2-.62-1.2.48-.23L70,45.47c1.37.23,1.21-1.06,1.46-1.7,1.46-.44,3,.13,4.29-1.1l-1.6-.56,1-.36a3.56,3.56,0,0,0,.85.62,3.67,3.67,0,0,0,1.15,0l-1.55-.72,3.73-.38-.22-.28,1.89-1.48-.15-.33.71.32c1.16-.85,2.21-1.59,3.76-.77l0-.34-.57-.5.06-.31,2,.25c.13-.81,1-1.34,3.33-2l-.25.94c1.21-.55,2.25-1,3.3-1.5a1.2,1.2,0,0,1,.65,0c.31.06.61.19,1.14.36-.58-.83.37-2.12-1.5-2.07,1.3-.63,2.17,1,3.22,0l-.83-.69,2.81-.59-.41-.45c.85-.08,1.86.12,2.17-1.26l1.88.51,0-.19-1-.55,1.11-.52c.27-.11.54-.19.81-.28l.19,1,1.68-.64-.87-.35a5.76,5.76,0,0,1,.78-.31,5.59,5.59,0,0,1,1.08-.13,4.19,4.19,0,0,1,.78.11l-.26-1.08,1.27-.22-.31-1.14,1.06.76,2-1.1-.48-.52a2.58,2.58,0,0,0,.8-.13c.67-.33,1.3-.73,2-1.08.14-.08.35,0,.52-.07.81-.24,1.47-.63,1.46-1.61.32.1.32.1.3,1.91l1.21-1.44c-.16-.27-.4-.68-.6-1.1a2.52,2.52,0,0,1,.48-.28c.23.29.43.62.71,1.06l1.51-.37-.79-.38c.17-1.09,5.43-3.69,6.57-3.41l1.68-1.26-.38-.45c1.23-.62,2.92-.59,3.12-2.5l.52.92a10.72,10.72,0,0,1,2.92-1.43c.6-.13,1-1.25,1.54-2l2.79.53.11-1.22c.81.44,1.42.49,1.67-.66l.75,1.56,2.46-.89.11.32a2.78,2.78,0,0,0-.76.41.76.76,0,0,0-.07.62c0,.1.28.15.44.2l.81.26c-.12.73-.17,1.2-.28,1.66,0,.17-.21.31-.26.48a2.87,2.87,0,0,0-.12.73c.85.23.27.91.37,1.34a4.92,4.92,0,0,1-.18,1.63l-.2,1.67c.62.45.76.3,1.27-1.59l.67,2.22.13,0-.08-1.44c.36.25.8.41.8.58a4,4,0,0,1-.27,1.56c-.06.15-.57.12-1,.19-.4,1.83-3,1.54-3.71,3.39-.65-.34-1.14-.22-1.22.66,0,.11,0,.25-.07.3a33,33,0,0,1-2.75,2.12c-.18.13-.81-.17-1.05-.44-.43-.49-.76-.5-1.15-.12l1.45,1.35a10.69,10.69,0,0,0-1.68.31,5,5,0,0,0-1.74.89c-.56.54-.8.26-1.12-.26l-.49.64,1.57.64c.25-1.17.86-1.54,2.15-1a13.08,13.08,0,0,0-1.71,1.32c-.66.68-1.16.19-1.79,0a3.71,3.71,0,0,0-1.47.15l-.56,2.79L129,34.07c0,.22.16.68,0,.78a5.63,5.63,0,0,1-1.2.63l-2.25,1.88.17.45a20.21,20.21,0,0,1-1.84,1.6,1.22,1.22,0,0,1-1,0,4.15,4.15,0,0,1-.89-.74c-.42,1.17-.19,1.49,1,1.74l-.94.42c.15,1.17-1.19,1-1.84,1.58l.46.77-3.34,1.56.76.66a5.65,5.65,0,0,1-1.63.61c-.25,0-.53-.58-.8-.9l-.26.14.87,1.93c-1.3,1.12-2.69,2.33-4.09,3.52-.7.61-1.1.3-1.31-.46-1.19,1,0,1.27.74,1.69l-1.39,1.17c.07.21.15.41.15.4-.42.48-.7.84-1,1.15-.11.11-.35.08-.5.16a4.36,4.36,0,0,0-.46.41c.21.07.45.24.6.19a10.06,10.06,0,0,0,1.47-.73c.4-.23.77-.53,1.26-.88,0,0-.09-.19-.13-.29l1.29-.8.72.94,1-.31-.45-1,1.51.55c.23-1,.65-1.77,1.94-1.5.23,0,.62-.5.88-.82a1.92,1.92,0,0,0,.22-.65l.71.45-.15-1.45c1.23,1.5,2.41,1.1,3.55.15l-1.69.47.43-1.47c1.5.74,2.64-.48,3.87-.34l.12-2.07,1.67.29.22-.63,2.27-.42c-.09-.75.66-1.35,2-1.63l-.17-.61H133l.22,1.07c.8-2.26,2.23-2.91,4.13-2.22v-2l.31,0,.24.57h2.42a14.16,14.16,0,0,1,.63-2,1.19,1.19,0,0,1,1.82-.16c.7.55.7.55,1.63.32l-1.2-.83c.73-.51,1.37-1,2-1.4.07-.06.19-.14.26-.12,1.47.41,2-.81,2.47-1.68.56-1.09,1.1-.37,1.65-.24s1,.35,1.54.53l.13-.25-.82-1.25.06-.27,1.21.33V32a2.48,2.48,0,0,1,1.63-.23c.47,0,1-.69,1.59-1.17.81.26,1.64-.28,2.18-1.74l1.33.41.11-.25-.78-.5.07-.26,2.27.73.15-.32-.59-.53a13.76,13.76,0,0,1,1.49-1.62c.19-.16.65-.06,1,0,1,.22,1.93.35,2.54-.7.06-.11,0-.29,0-.63-.7.59-1.2,1.42-2.38.47l3.78-1.57-.44,1.31c.66.1,1-.18.84-.77a1.37,1.37,0,0,1,1.57-1.71c.2,0,.43-.23.64-.36l1-.66V21.6l1.41.2-.19-.34a12.15,12.15,0,0,1,1.17-1.31c.16-.13.55,0,.82,0s.84.21,1.26.31l.11-.32-.7-.36c.49-.63.92-1.24,1.42-1.79.1-.1.47,0,.72.08l1.46.17.09-.33-.57-.89,1.37-.1L177.7,16l.21-.16.34.6,1.24-.54-.43,1,.24.16c.18-.47,1.54,0,.76-1.36-.21-.36.47-1.23.79-2l.71-.06-.15.75,1.52-.16-.14-1a3.45,3.45,0,0,0,2.71-2.17.09.09,0,0,1,.08-.05c1.56.15,1.95-1.46,3-2a5.24,5.24,0,0,1,1.81-.18l.1-.68-.88.15c.71-1.18,1.32-2.13,2.71-2.34l.17,1c1.71-2,2-2.06,3.08-1L197,5.19l.44,1.14.29-.08-.28-1.35c.22.07.61.08.8.28a1.17,1.17,0,0,0,2.06-.34c.08-.18.4-.26.78-.2l-.4,1,1-.63a3.61,3.61,0,0,0-.55,1.18c0,.31.32.64.53,1L201,8.84l-.33-.12.08-.79-1.46.66,2.1.79.54-.62.9.48a9.48,9.48,0,0,0-1.05,1.17,5.66,5.66,0,0,0-.46,1.12l2.07.3.09-.92c1,.73,1-.23,1.2-.75l.29.17c-.33.63-.69,1.25-1,1.91a5.61,5.61,0,0,0-.14,1.1c-.11.61-.25,1.22-.38,1.83-.23,1-1.5,1.14-1.87,2.22-.24.7-1.29,1.18-2.05,1.63-.23.14-.71-.19-1.2-.34.08.69-1.48.51-1.17,1.84a5.75,5.75,0,0,1,.59-.43c.33-.14.67-.25,1-.37-.15.34-.21.78-.46,1s-1,.43-1.33.76a6.24,6.24,0,0,0-.87,1.28l-.7-.26c-.23,2-1.8,3-2.75,4.46l-.22-.16-.22-1.58-1,1.11,1,.5a3.19,3.19,0,0,1-.31.58c-.39.43-1,.67-.93,1.44,0,.19-.37.5-.64.62-1,.48-1.22,1.58-1.77,2.4a5.89,5.89,0,0,1-1.59,1.23c-.33-.21-.65-.43-1-.68l-.55,1.24.2.26,1.38-.84c-.2,1.43-.2,1.43-2.22,1.37.73,1.24.44,1.93-.9,2.61-.36.18-.47.83-.76,1.22a5.53,5.53,0,0,1-.74.71c0-.54.1-1.17-.69-1.26a2.06,2.06,0,0,0-.63.12,1.89,1.89,0,0,0,.38.53,10.43,10.43,0,0,0,1,.59c-1.09,1-1.22,1-1.71-.17-.73.62-.51,1.13,1,1.71l-1.54.76a3.7,3.7,0,0,1-.29,1c-.24.4-.6,1-.91,1s-.93-.43-1.38-.69c-.28-.17-.53-.37-.79-.56l-.16.34.55.1c-.09,1.21.23,1.48,1.59,1.32l-2.23,1.89-1.36-.12,1.51,1c-1.06.62-1.28,2.19-2.9,1.69-.25-.08-.68.4-1,.66a.5.5,0,0,0,.07.45c.12.09.34.05.52.06l.77,0a2.72,2.72,0,0,1-.35.75c-.41.44-.88.84-1.32,1.25l-1.21,1.13.58.35c-1.13,0-.66,2.18-2.1,1.54l-1,1-.66-.95c-.3.69-.3.69,1.39,1.77-.67.29-1,1.27-2.07.32l.87,2.68A5.94,5.94,0,0,1,169.45,58c.17-.11.65.25.89.52h1.12l-.55-.61c1.75-2,4.28-2.89,6.68-4.09l.56.78c.07-.54,0-1.24.2-1.29a8.93,8.93,0,0,1,1.87-.2l-.63-1,.2-.25,1.83.66c-.09.1,0,0,0,0,.12-1.39.41-1.66,1.67-2.07a5.83,5.83,0,0,0,1.51-1.06c.5-.38,1-.78,1.6-1.28l.31.62.91-.67.56.39L190,46.39a8.55,8.55,0,0,0,1.63.11c.14,0,.16-.56.33-.79.34-.44.69-1,1.16-1.17.28-.1.79.49,1.44.93,1,0-.21-1,.22-1.36s.71-.77,1.24-1.35a5,5,0,0,0,2.5-1.37A11.62,11.62,0,0,1,202,39.58c.27-.11.76.33,1.39.63l.31-2.88,1.6.38c2.87-.53,4.33-3,6.72-3.94v.45l.26.07.47-1.34c.17-.25.33-.51.52-.74a1.39,1.39,0,0,1,.36-.23,2,2,0,0,1,.12.4,2.8,2.8,0,0,1,0,.48c1.43,0,1.47,0,1.41-1.12l.72.23.85-1.17,1.93.13.06-.32-.73-.52.9-.47-.29-.91.23-.18.33.84.23-.2-.23-.83c.09-.06.18-.14.2-.13,1.46.93,2-.8,3-1.09a8.42,8.42,0,0,0,1.06-.51v-.5l1-.07-.14-.18a4,4,0,0,1,.6-.56c.82-.53,1.65-1,2.66-1.65l.26,1.19c.21-.37,1.15-.3.7-1.06l.84-1.33c.7.1,1.48.16,1.74-1,.14-.64,1-.62,1.8,0l.91-1.1-1.08-.21c.64-.49,1.17-.91,1.72-1.29.18-.13.48-.29.64-.22.56.22.79,0,1-.5a.59.59,0,0,1,.53-.18c.77.26.91-.17,1.3-.74a2.88,2.88,0,0,1,2-.91,2.19,2.19,0,0,0,2.37-1.81l.12.78A22.71,22.71,0,0,1,244.13,13c.47-.44,1-1,1.84-.57.1,0,.6-.3.62-.49.09-.89.95-2,1.75-2,.3,0,.6.35,1,.62L250.9,8l.83.35.48-1.21.52.46-.07.64.77-.43c-.29-.61-.88-1,0-1.75.5-.36.73-1.07,1.54-1,0,0,.13-.53.4-1l.32.83c.3-.65.52-1.11.72-1.58a1.57,1.57,0,0,0,0-.37c1.16,0,1.66-1,2.48-1.56.46-.3.65-.94,1.4-.93A4.92,4.92,0,0,0,261.85,0a3.57,3.57,0,0,1,.17.36c.38,1.44.74,1.55,2,.64.55-.4,1.1-1,1.83-.36.23.19.36.51.61.66L265.7.47l-.35.34c-.15,1.23.22,1.63,1.33,1.49.14,0,.3.13.46.19l1.21.47.18-.26-.35-.8.25-.16a4.38,4.38,0,0,1,.45.7c0,.11-.11.3-.15.4.43.85,1.36-.84,1.62.07L267.66,6l.16,1.61a5.23,5.23,0,0,1,.66-.53,4.17,4.17,0,0,1,.63-.18,2,2,0,0,0-.21.62,1.89,1.89,0,0,0,.21,1.08c.19.25.64.3.94.43a20,20,0,0,1-1.85,3,3,3,0,0,1-1.93.61,5.45,5.45,0,0,1-.66.78,2.63,2.63,0,0,1-.7.32l.56.82,1.12-1,.17.15L265.52,15l-1.7-.47v.86l1.23-.26c-.18.32-.25.59-.41.67a1.65,1.65,0,0,1-.8.13c-.41,0-1-.3-.93.44,0,.21.58.36,1,.63,0,.94-1.07.36-1.53,1.06l-.56-1.85c-.54.5-.32,1.79.67,2.59a8.51,8.51,0,0,0-1.71.85,2.25,2.25,0,0,0-.6,1.32l-1.33,1H258c.46-.61.4-1.08-.6-1.17,1.28,1.6-.79.92-1.2,1.85.69-.06,1.16-.12,1.63-.12a8.28,8.28,0,0,1,1,.12l0,.38a19.85,19.85,0,0,0-1.83,1.2c-.22.17-.26.58-.48,1.14-.63.18-.93,1.53-2.24,1.34a4,4,0,0,1-1.77,3,.71.71,0,0,1-.55.18,2.55,2.55,0,0,0-2.3.31l.09.7,1.83-.42c-.62,1.76-2.5,1.85-3.42,3.1l.94.23c-1,.94-2,1.77-2.86,2.62-.08.07-.08.23-.1.35-.13.7-.45.71-1.08.29l.32,1.3-.76.56-.16-1-1.43.23,0,.29,1.35.57-1.15,1.33-.11-1.54-1.28.82-.12-.14.59-.78-1.52-.15c0,.22-.11.6,0,.71.54.45,1.18.8,1.73,1.25.18.14.19.5.28.76a5.68,5.68,0,0,1-.72-.11,8.71,8.71,0,0,0-1.74-.46c.48.73,1.34,1.23.85,2.25l-.78.18-1.2,2.29-.32-.06v-1.5c-1.27.61-1.45,1.33-.5,2.4-1.6,1-1.63,3.5-3.78,4.12-.87-1.09-1.06-.11-1.42.78l-.67-1.34-.35,1.67c1.08.67,1.79-.05,2.42-1.15a1.39,1.39,0,0,1-.69,2c-.51.27-1.21,1-1.74-.1-.06-.12-.33-.14-.5-.21a2,2,0,0,0,0,.6c.07.37.2.73.31,1.14l.92-.06.4,1.45-.44-.39-1.31.78a5,5,0,0,1-.14,1.41c-.13.33-.5.56-.63,1,.85-.33,1.7-.64,2.54-1,.2-.08.5-.23.51-.38.16-1.7,2.1-1.24,2.76-2.3.68.36.61-.22.73-.57a1.39,1.39,0,0,1,1.76-.56c.24.12.83,0,.92-.13.31-.59.55-1,1.36-1a5.86,5.86,0,0,0,2-.93l-.74-1.22,1.36.35-.07-.58h2.34l-.5-1.38.7-.31c.32.4.6.75,1,1.28.3-.74.46-1.25.7-1.71a.77.77,0,0,1,.56-.31c1.32,0,2.52-.21,2.65-1.79L253,46l.1-.32-.76-.37c.43-.56.73-1.31,1.27-1.56s1.27,0,2.06.09l.29-1,1.18.06L258,41l.49.73L261,39.94l-.21-.47.18-.21,1,.81a4.36,4.36,0,0,1,4.73-1.44l-.56-1.3,1.71-.33-.79,1.37c1.13-.22,1.37-.79.94-1.79l3.37-1.7L271,33.75c1,.48,1.74.67,2.31-.43.08-.16.63-.18.92-.11a13.28,13.28,0,0,1,1.48.57l.14-.29-.36-.31,1.33-1.65c.77.6,1.4-.09,2.05-.88.38.51,1,1-.18,1.68l.81-.06c0-1.08,1.11-1.4,1.51-2.23a2.44,2.44,0,0,1,3.3-1.29,2.53,2.53,0,0,0,.42,0l.06-.93,1.87-.21.07.32-1,.29.08.27a5.14,5.14,0,0,0,1.2-.41c.16-.09.11-.49.21-.73a3.1,3.1,0,0,1,.56-.95c.12-.11.5,0,.73,0a13.48,13.48,0,0,1,1.28.55c-.29-.75-1-1.38.16-1.63l.37.66c.47-.5,1.84.05,1.28-1.58l.32.09.62,1c.64-1.57,2-1.52,3.38-1.71.42-.05.76-.6,1.27-.83-.2.92-1.08,1.42-1.55,2.17-.06-1.12-.76-.21-1.14-.31-.17-.05-.47.35-.69.58a1.14,1.14,0,0,0,.27.34c.87.64,1.1-.31,1.59-.64.11.6.32.84.74.19.15-.22.28-.45.42-.67l.26.2L296,26.15c1,.2,1.41,1.65,2.71,1l.38.6-3.9,2.13L295,29l-.25-.05-.35,1.25,1.05.31-.06.3-1.34-.29c-.19,0-.46-.1-.56,0-.47.42-.84.24-1.22-.12a4.91,4.91,0,0,1-.37,1.1c-.3.48-1.22.28-1.27,1.09l-.66-.24-.24,1.43-1.07-.05.46.74a9.53,9.53,0,0,1-1.31.28,2.49,2.49,0,0,1-1.17-.19,5,5,0,0,0-1.64-.18.7.7,0,0,0-.41,1.21c.06.09-.09.5-.17.51-.74.09-1,1.14-2,.84-.32-.09-1.05.54-1.31,1-.43.76-.82.76-1.45.3a3.61,3.61,0,0,0-1-.31,6.74,6.74,0,0,1,.54,1.47c0,.18-.44.4-.77.69l-.3-1.29-.81.75-.48-1.62c-.46,1-.8,1.76-1.15,2.51l-.19,0c0-.6.09-1.19.13-1.76l-1.19.72c-.06.53,1.1,1.41-.17,2.27l1.06.21c-.62.5-2.15.55-.7,1.94-.41-.12-.66-.12-.79-.25-1.2-1.13-1.2-1.14-2.39.25l1.11.3v.13c-.34,0-.74-.15-1,0s-.2.56-.32,1h-.49c-.2-.6-.35-1.08-.57-1.76L268,46.61l-1.77-1.17-.24.17,1.45,2.13a5,5,0,0,1-1-.58c-.62-.61-1-.56-1.2.41l-.8-1.62c-1,.61-1,.74-.14,1.94-.53.28-.53.28-1.66-.68a1.53,1.53,0,0,1-2.27.48c0,1,.2,1.18,1.13,1.12,0,.7,0,.7-1.13.52-.07,1-.14,2-.2,2.94l-.76-.45-.84.41-.2-.25c.78-.75,2.08-1.21,1.59-2.69-.22.1-.69.21-.71.37-.16,1.53-1.3,1.5-2.45,1.54l.19,2.28-2.21.64-.11-.27,1.36-.81v-.68a5.79,5.79,0,0,1-1.44.51c-.64.05-.63.16-.49.76s-.28,1-.53,1.53a11.68,11.68,0,0,1-.87,1.28c-.11-.53-1.76-.27-.61-1.66l-2.09.71.56,2.35-1.84-1.14.17-.25-1.25.51-.14-1.09-.31,0c.09.53.14,1.06.28,1.57.06.19.4.49.52.45,1.54-.5,1.28.87,1.62,1.62L248.52,58l-.45.38.48,2a1.65,1.65,0,0,1-.52-.23c-.46-.31-.86-.64-1.32,0a.76.76,0,0,1-.68-.09,8.55,8.55,0,0,1-.51-1.3c.15,0,.39-.14.42-.09a8.66,8.66,0,0,1,.5.95l1.54-.85-1.89-1.49.12.92L245.12,58c-.77,1.38.77,2.51.34,3.9-.44-1-.89-1.94-1.34-2.94-.37.39-.4,1.41-1.41,1.25,0,0-.11.53-.16.82a2.92,2.92,0,0,0,.8-.1c.19-.09.31-.34.64-.73.57,1.18-.21,1.6-.77,2.09.5.81.5.81-.33,1l.24-.63c-1.3.25-2.22.2-1.28-1.59l-2.18.86-.92-.38-.49,1.33-1.21-.58v2c-.29-.08-.88.74-1.37-.17a5.28,5.28,0,0,0-1.19.41c-.37.16-.73.37-1.16.59a14.16,14.16,0,0,0,0,2.32c.06.31.64.53,1.12.9-.35.08-.84.35-1,.21a2.59,2.59,0,0,1-.87-1.21c-.19-.58-.18-1.24-.42-1.88-.09.7-.77,1-.8,1.82s-1.48,1.23-2.42.87a4.57,4.57,0,0,1-.62-.44,2.73,2.73,0,0,1-.49,3.92l-1.11-.64c-.54.32-1,.82-1.56-.06-.07-.13-.41-.1-.62-.15l-.2,1-.93.3,0,.37,3.45.19c-.71.38-1.23.68-1.77.94a.64.64,0,0,1-.48,0c-.4-1.13-1.16-.21-1.72-.32l0,0,.29-1.29c-.95.25-1.5.54-1.74,1.38a4,4,0,0,1-1.67,1.82c-.69.51-1.32,1.1-2,1.67.22-1.07.22-1.07-2-1.05l1-.94-1.28-1.07-.22.29.55.45-1,1,.12.33c-1.22-.28-1.64-2.16-3.27-1.65V73.17l-2.14-.27c-.27,0-.54-.11-.81-.17.16-.23.28-.55.51-.67s.51,0,1,.09V70.68H209a5.5,5.5,0,0,0,.18-1.05,4.37,4.37,0,0,0-.31-1l2.21-1c-.77-1-1.44-1-2.13-.16-.36-1.42-.14-1.56,1.47-1.32.45-.78.84-1.45,1.22-2.14a1.69,1.69,0,0,0,.28-.74c0-1,.51-1.46,1.68-1.35L213,60.47a4.08,4.08,0,0,0,1-1.47c.2-.8.38-1.31,1.27-1.51.22-.05.27-.86.42-1.4l1.19-.56c0-.71,0-1.46.78-2,.27-.17.29-.71.52-1a.92.92,0,0,1,.7-.35,4,4,0,0,1,1,.59c.42-.42-.14-.91-.24-1.39-.06-.29-.31-.66-.2-.85a27,27,0,0,1,1.77-2.92c.21-.3.81-.32,1-.62a12.77,12.77,0,0,0,.72-1.54c.17-.32.48-.57.66-.88a5.73,5.73,0,0,0,.35-1.05l1.88-1.36c-.4-.47.22-1.57-1-1.7-.16,0-.4-.3-.43-.27-.22.18-.56.44-.54.63.1.69-.21.72-.72.58-.1,0-.26-.09-.27-.07-.79,1.21-1.81.71-3,.17.76,1.36-.1,1.79-.84,2.33-1.1.82-1.31-.87-2.32-.77.14.35.24.6.35.84s.26.5.39.75l-.78.1c-.13-.12-.31-.22-.37-.38-.13-.34-.21-.7-.33-1.11-.44.36-.68.56-.93.75a4.17,4.17,0,0,1-.46.26l.17.31.66-.31.37.81.92-.33a1.32,1.32,0,0,1-2.12.79c-.22-.24-.22-.67-.32-1l-.32.05v1.57l-1-.06c-.14-.63.62-1.47-.42-2a6.12,6.12,0,0,0-.25.78,1,1,0,0,0,.69,1.18l-.54.85.92.4c-.05.16-.06.3-.12.33-1.09.53-2.19,1-3.27,1.56-.54.28-.73.26-.62-.42,0-.2-.25-.44-.39-.66l-.31.22.34.73-.92.47-.17-.93-.27-.09c-.2.89-.44,1.71-1.48.83l-.72,1.12c.28,0,.63.22.72.13.86-.83,1.3,0,1.89.37-.85.2-1.78,0-2.24,1-.07.16-.49.17-.76.21-.63.12-1.31,0-1.8.59-.11.13-.43.09-.65.12a2.06,2.06,0,0,0-1.08.37l.82.25a1.14,1.14,0,0,1,0,.19,2.89,2.89,0,0,1-1,0c-.29-.08-.49-.45-.78-.57-1-.39-1.32-.14-1.23,1.15l.35-.59,1.26.61c-.53.59-.51.54-1.32.3-.27-.08-.64.14-1,.22l.06.25,1,.28-.05.27h-2c.17-.4.32-.8.51-1.27l-1.11-.2.2-.94-1.12.42,1.54,2a.62.62,0,0,1-1,.34l-1.16-.83c-.61,1.17.59,1.35,1,2-1.19.1-1.89,2.47-3.22.75l-2.16.19,1.22,1.46-1.26.25-.41-1.52h-.39l-.15,2.17-.75.26-.23-1.05-.3-.08-.39,1.52.94.07c-.66.88-.83.78-1.88-1-.55.45-.55.45.69,1.82l-1.63.63-.31-1.4-.34.08v1.52l.6.14.06.34a12.16,12.16,0,0,1-2.33.51c-.32,0-.66-.5-1.17-.93l.2,2.13H183L182.08,63l-.34.06c.17.65.19,1.14-.69.91a1.13,1.13,0,0,0-.79.18c-.14.09-.16.38-.23.58.19,0,.47.17.55.1,1.19-1.12,1.37.21,1.91.64l-.06.29-1.68-.18v1.28c-1.66-1.17-2.16.37-3.13,1.08l.39-1.51-1.75.64,1.23,1.36-.16.32-2.07-.63.56,1L173,70.63l-1-1.93-1,1.48c1,1,.93,1.44-.17,1.83l-.19-.86-1,.38.46.66a3.13,3.13,0,0,1-.84.06c-.88-.17-2.05.44-2.55-1.16l-.45,1.62,2.36.17c-.38,1.28-1.55.67-2.06,1.14-1,.93-1.41-.4-2.21-.34,0,.3.1.61.12.91s.1.81,0,.85a2.44,2.44,0,0,1-1.08.11,6.71,6.71,0,0,1-1-.22l.43-.45c-1.18-.52-1.76-.35-1.88.51-.5-.34-1.56-.12-1.22-1.15-.34.14-.66.38-1,.35s-.53-.33-.83-.54A2.38,2.38,0,0,0,160.9,75.43Zm24.36-13.9-.7.36-1-.62-.15.21,1.66,2.21c0-.78.1-1.48.14-2.17.13-.1.36-.2.37-.31,0-.45,0-.9,0-1.36l-.21-.14a4.28,4.28,0,0,0-.56,1.08C184.8,61,185.11,61.28,185.26,61.53Zm-10.13,4.56-.24-.29c-1.4,0-1.57,1.13-1.93,2s.58,1.17,1.1,1.62l1.18-.62-1.66-1.38Zm67.29-28.78c.25.26.25.26,1.08,0,1.42-.4,1.41-.4.84-1.66-.1-.21,0-.49-.09-.71a3.06,3.06,0,0,0-.26-.52C242.85,35.09,243.79,36.7,242.42,37.31Zm-32.56,9.2,1-.47-.15-.29-1.88.91c.32.48.56.85.81,1.2s.66,1.3,1.3.22c.06-.1.23-.13.52-.3Zm29.78-5.31-.72,1-.11-.29-1.06.22c.43.91-.4,1-.95,1.29l.21.33,1.8-.9.14.29,1.08-.82ZM227.91,68.62l-2,1.38c.4,1,1.11-.43,1.56,0l.09,1,.3,0a7.19,7.19,0,0,0,.24-.79c.06-.36.08-.73.12-1.1h.28Zm7.73-21.47a4.46,4.46,0,0,0-.82-.41.54.54,0,0,0-.41.25,2.08,2.08,0,0,0,.26.69c.06.1.22.14.31.24s.41.59.52.56c.33-.08.82-.3.87-.54s-.21-.73-.37-1.19Zm-63.45,2.53V46.47C171.23,47,171.2,49,172.19,49.68Zm-8.36,23.79c1.28-1,1.46-1.39,1-2.57C164.64,71.88,162.77,72,163.83,73.47Zm91.09-48.06c1-.38,1.42-.86,1.13-1.61-.62.62-1.25,1-1.49-.32l-.53.65ZM74.51,52.66c.41,1.27-.85,1.21-1.73,1.67l1.07.46-.11-.28c.34-.26.65-.66,1-.74A3.09,3.09,0,0,1,76,54l.06-.19Zm33.19-.81L107,54.19l.24.05.94-1.58v1C108.94,53.09,108.77,52.46,107.7,51.85Zm121.84,2c1.26-.46,1.55-1.38,1.06-2.7l-.84.59.55,1ZM125.84,33.75l-1.09,1.76c1.06-.08,1.17-1.93,2.21-.71l.33-1Zm42.94,18.16.22.28c.33-.22.66-.63,1-.62,1,0,.72-.84,1.07-1.25,0,0-.32-.43-.51-.64l-.18.09.24.57Zm-56.52-4.75-.47.21,1.26,2.12C114.39,47.81,112.24,48,112.26,47.16Zm91.23-33.51c-.88-1.29-.88-1.29-2,.47Zm90.7,14.62-.28-.12L292,29.73c.49.06,1.16.32,1.37.12A5.2,5.2,0,0,0,294.19,28.27ZM223.74,39.42c-.32.37-.51.87-1.16.56-.14-.06-.47.09-.61.25a1.86,1.86,0,0,0-.26.66c.22,0,.45,0,.67-.08s.33-.23.44-.19C224.11,41,223.8,40.12,223.74,39.42ZM36.09,66.24l-.21.32L37,67.91l1-1.74C37.16,65.86,36.87,67.56,36.09,66.24Zm7.46,0L43.31,66l-2.47,1c.55.19,1,.49,1.19.38A10.14,10.14,0,0,0,43.55,66.24Zm70.71-21.17h-.32v2.09l1.53-1-.16-.26-1,.2Zm90.79,6.78.39-.31c-.29-.41-.51-1-.9-1.17s-.78.41-1.19.65l.14.35C204.2,50.87,204.76,50.88,205.05,51.85Zm21.61-14.34a10.09,10.09,0,0,0-1-.07.37.37,0,0,0-.28.22c0,.09.07.32.11.32a3.33,3.33,0,0,0,1.46-.11c.23-.12.2-.74.28-1.14l-.38-.06Zm.28,1.77-1.87.28,1.11,1.27Zm20.3-5.85-1.17,1.06C247.45,35,247.5,35,247.24,33.43Zm-20.91,1.69.19.25,1.53.13L228,34.29c-.43.26-.72.47-1,.63A3.21,3.21,0,0,1,226.33,35.12Zm-51.84,8.7c-1.07.51-.5,1.34-.55,2l.31-1.28.66.73.25-.15Zm-78,1.64-.39-2.21C95.79,44,95,44.88,96.49,45.46ZM185,49.86c.21.14.54.45.64.39a10.23,10.23,0,0,0,1.3-1l-.26-.35Zm67.91,5.48.74-2-1.55,1Zm-90.22,17c-1.74.55-2.21,1.12-1.59,1.73ZM123.1,61.18l.55-1-.18-.27-1.87.74Zm77.22-9.12,1.12-.71,0-.26h-1.93ZM168.13,69.65l-1.07-.08-.57.82C167.14,70.27,168,70.7,168.13,69.65Zm-128.2-2c.24-1.19-.23-1.52-1.27-1.32Zm83.3-29.27.26-.06V36.67l-1-.34ZM8.8,75.08l-.22-.18c-.08.35-.31.75-.2,1s.54.63.83.94l.16-.2Zm86.81-2.74-.22.33,1.14,1.49.27-.1a3.37,3.37,0,0,0-.33-1A5.2,5.2,0,0,0,95.61,72.34ZM58.85,60.42l1.08-2-2.1,1.49Zm117.08,4.15.91,1L178,63.87C177.06,64.12,176.84,65.5,175.93,64.57ZM71.56,53.69a4.23,4.23,0,0,0,1-.11,9.23,9.23,0,0,0,1.2-.67A2,2,0,0,0,71.56,53.69ZM185.68,32.13c-.07-.85-.37-1.36-1.12-1.4l-.42.41ZM116.57,64.78l.34-.32c0-.94-1-.69-1.42-1.08l-.25.29Z"/><path d="M235.71,66.08a7.56,7.56,0,0,1-1.13.51c-.17,0-.56-.14-.57-.24a4,4,0,0,1,.15-.95c.53.28.6-.44.76-.43.66,0,.76.57.77,1.13Z"/><path d="M.44,74.09c.2-.29.34-.45.45-.64s.32-.6.48-.9l.86.89-.73.13.65.92Z"/><path d="M143.91,19.36c-.33-.79-.57-1.63-1.22-.37a5.62,5.62,0,0,0-.16-.95c-.05-.16-.21-.27-.33-.41a2.08,2.08,0,0,1,.75,0c.54.26,1.05.58,1.65.92Z"/><path d="M298.47,24.37l.33-1h.32l.59,1.17-.23.28-1-.5Z"/><path d="M155.58,43.49V42.05l1.21.57-.94,1Z"/><path d="M298.46,24.35c-.51.63-.51.65.12,1.43a3.08,3.08,0,0,1-.58-.35,5.33,5.33,0,0,1-.58-.63l.25-1.2.79.76S298.46,24.35,298.46,24.35Z"/><path d="M235.69,66.1l1.29-.9.21.16c-.24.52-.47,1-.75,1.7-.29-.39-.5-.69-.73-1Z"/><path d="M222.93,73.28l.06.31c-.63-.1-.8.34-1,.8,0,.07-.23.06-.41.1l.65-1.77.71.6Z"/></g></g></svg>