<svg xmlns="http://www.w3.org/2000/svg" viewBox="0 0 1263.57 97.54"><title>LOGO</title><g id="Layer_2" data-name="Layer 2"><g id="Layer_1-2" data-name="Layer 1"><path d="M160.9,92.44c.22.16.42.41.66.46a9.41,9.41,0,0,0,1.43,0,2.09,2.09,0,0,1-2.74.86,7.64,7.64,0,0,0-2.12-.45c-.19,0-.42.27-.68.46l1,1.21c-.57-.18-.74,1.11-1.52.16-.57.81-1.16.34-1.7-.18l-.81,1.45.91-.31.19.3c-.54.39-1.05,1-1.64,1.09s-1-.5-1.56-.8l-.14.83-1.55-1-.64.57-1.4-.26V97L147,96a.43.43,0,0,0,.14-.21,3.73,3.73,0,0,0,0-.59,1.85,1.85,0,0,0-.52,0c-.94.27-.73,1.06-.78,1.77-.48-.78-1.53-1.22-1-2.48.11-.29-.53-.86-.82-1.3l-.34,0-.3,1.18c-.46-.22-1-.4-.77-1.23,0-.12-.31-.34-.48-.51s-.42-.27-.42-.4.18-.39.3-.58.32-.45.48-.67l1.24,1.1.21-.17-.45-1.7-.3-.16-.7,1c-.5-.68.2-1,.43-1.51.32-.64.93-1.21.19-2,1.43-.28.84-2.34,2.45-2.45V82.22l.85.2L146,81.21l1,.57c-.15-1.4.35-2,1.73-2.06L148.6,79c1-1.87,3.09-2.8,3.35-5a16.68,16.68,0,0,1,1.75-2.33c1-.91,0-2,.6-3l.77-.13.09.16-.78.7,1.68-.28-.38-.5,1-.87-.46-.63,1.74-.42a1.6,1.6,0,0,1,.91-1.85c.23-.12.18-.79.29-1.4.59-.11,1.58-.19,1.32-1.14.57-.63,1-1,1.37-1.53.55-.74,1.05-1.52,1.6-2.26.05-.07.32,0,.49.06l.22-1.93c-.37.33-.66.75-1,.87a1.8,1.8,0,0,1-1.69-.54c-.37-.31-.8-.6-1.14.18-.12.28-.75.32-1.25.51V56.53l-1.75,1.85,1.63-.24.24,1,1-.71.25.32c-.44.33-.85.83-1.33.92s-1-.29-1.46-.46v1.06l-.21.07L156,57.7l-1.61,2.89-1.24-.35c.66.59.91,1.15.21,1.79a.79.79,0,0,1-.73,0c-.15-.1-.13-.45-.25-1l-.73,1.2.54.51-.89.8-1.08-1-.32.22.68,1.29c-.58-.1-.9-1.32-1.63-.51-.27.3-.14,1,0,1.57-.8.63-1.57-.57-2.14-.32l-1.46,1.51a3.76,3.76,0,0,0-.56.57c-.4.63-.73.49-1.17-.29-.46,2.17-2.21,2.6-4,3.42a4.68,4.68,0,0,1,.24-1.1c0-.08.54.16.73.07a1.72,1.72,0,0,0,.85-.89l1.05-.43h-2.12v-.22c-.38.35-.78.67-1.12,1a.76.76,0,0,0-.17.63c.51,1.09-.05,1.12-.94.83-.05.88-.26,1.5-1.28,1.53-.66,0-1-.19-1.1-.79a4.4,4.4,0,0,0-.43-.87l-.39.15a6.13,6.13,0,0,1,.28,1.18,1.49,1.49,0,0,1-.27,1c-.15.17-.57.1-.72.12l.2-1.13L134,71c-.13.55-.23,1.12-.4,1.66-.07.23-.22.53-.41.6a5.73,5.73,0,0,1-3.2.23c-.34-.07-.6-.53-.9-.82v.9l1.25,1.14c-1.09,1-1.29-.45-2-.46a1.36,1.36,0,0,1-2,.49c.14.68.2,1.24,1.06,1.06.22,0,.48.12.72.19-.17.19-.3.46-.52.58-.89.51-1.32.51-1.87.16l-4,3.21-.2-.15.71-.82-.64-1.19a2.29,2.29,0,0,1-.27.71,10.68,10.68,0,0,1-.89.89,13.89,13.89,0,0,1-.73-1.3,3.21,3.21,0,0,0-.32-.91c-.07.56-.4,1.43-.16,1.62.71.6.3,1.08.12,1.62l-1.75-.18c-.42.8.17,2.32-1.51,2.24a4.6,4.6,0,0,1-1.16-.47,12.28,12.28,0,0,1-1.21.86.73.73,0,0,1-.69,0,4.71,4.71,0,0,1-.56-1l-.53.33c0,.37-.06.89.14,1a5.47,5.47,0,0,0,1.43.64c-.34.74-1.41.68-2.33-.47-.07.7-1.24.7-.8,1.64-.28,0-.62.19-.85.1a9.05,9.05,0,0,1-1.36-.84l.55,1.51-2-.75c-.5.75-.21,1.37.91,1.84l-1.67.51c0-.24.06-.47.07-.71s0-.46-.09-.53a.77.77,0,0,0-.58,0c-.41.1-.8.25-1.19.38.61.17.87,1.19,1.81.86l-1.32.69c-.28-1-.78-1.39-1-.83,0,.14.15.35.16.53a2.25,2.25,0,0,1-.11.54l-1.32-.74.81-2.52c-1.26.55-1.58,1.62-.86,3.16-1.12.06-1.1-1-1.48-1.66-.59,1-.38,1.4.93,2l-1.29,1,.16-.83-1.43-.47.53,1.32-1.88-.44-.27,1.53L99.34,90c-.69,1.49-2.25,1.15-3.18,1.86-.71-.14-.85-1.77-2.09-.61-.12-.22-.45-.55-.38-.74s.48-.42.75-.59.5-.26.75-.39l-.09-.36c-.4,0-1-.11-1.16.1a2.82,2.82,0,0,0-.72,1.61c0,.51.42,1,.67,1.6-1.27,1.1-1.08-1.11-1.94-1-.47,1.31-.37,1.67.58,2a3.11,3.11,0,0,1-3.41-.17l.58,1.28-.73.15-1-.91-.28.22.28.89c-.25,0-.56.09-.66,0s-.16-.54-.33-.73a2.92,2.92,0,0,0-.71-.47l-.38.83c-1,0-2.19-1.22-3.3.11,0-.4.06-.87-.08-1-.75-.43-.34-.87-.19-1.41a1.44,1.44,0,0,0-.31-1.13c-.15-.17-.65,0-1.25,0,1.23,1.1.36,2,.34,2.8l-.46-2.1-.82,1.05h-.31c0-.49,0-1,0-1.49a4.26,4.26,0,0,1,.15-.69c-.24,0-.47-.12-.72-.15s-.47,0-.71,0v-.32l.77.09.09-1.38c-.83,0-1.45-.21-1.34-1.22.84.31,1.25.06.91-.94a.3.3,0,0,1,0-.21A32.4,32.4,0,0,1,79.89,83c.4-.84,1.27-.9,2.35-.49l-1-.92,2.88-2.46a5,5,0,0,1,1.8-2.64,9.18,9.18,0,0,0,1.36-2.35c.71.39,1,.08,1.38-.77a5.81,5.81,0,0,1,1.44-1.68c.63-.65,1.3-1.25,2-1.92l-.34-.8,1.39.25.62.1a1.66,1.66,0,0,1-.13-.59A3.22,3.22,0,0,1,94,67.31c.3-.38.89-.52,1.34-.79a.64.64,0,0,0,.26-.36c.45-1.44,1.23-1.74,2.64-.91l.13-1-.79.35v-1a3,3,0,0,1-.86.17c-.82-.06-1.62-.19-2.43-.28-.24,0-.49,0-.73,0s-.53-.13-.8-.14a1,1,0,0,0-.63.11.58.58,0,0,0-.09.56.88.88,0,0,0,.6.29,11.14,11.14,0,0,1,1.84.16l-3.65,1.61-.91-.75c.61-1.84-1.37-2-2.47-2.73l1.95,2,.35,2.08-1-.17-.24-1.19c-.67.54-.9,1.08-.19,1.82l-1.57.46c-.2-.58-.21-1.13.91-1.23l-.77-.67-1.49,2.55c-1.29-1.12-1.4.49-2.17,1V67.7c-1.06,1.13-1.62,1.25-2.53.53l-.76.7,1.41.5,1.37-.58A2,2,0,0,1,79.85,70L78,70.75l.48-.57-.63-.73-1.38,1.46,1.21.13.4.54-4,1.75-.14-.24,1.16-.86c-1.22-.47-2.1.24-1.88,1.72l-1.92-.68c-.45.27-.46.48.28,1.34a14.12,14.12,0,0,1-2.49.51c-.44,0-.9-.41-1.41-.67,0,.4-1.15.92-.14,1.63-1.23.63-2.54,1.37-3.82.32-2.14.83-3.17,3.46-5.77,3.24.12-.38.25-.76.34-1.16,0,0-.23-.23-.3-.21a6.26,6.26,0,0,0-.8.35l.24.31-.63-.55c-.08.08-.23.16-.22.21.11.47.25.93.4,1.46l-2.18.41c-.31.49-.65,1.58-2,1.09-.18-.66-.37-1.32-.56-2l-.36,0c0,.32-.25.75-.12.94.27.39.24,1.2,1.07,1-.06.16-.09.42-.19.46-.67.24-1.35.44-2,.65a4.76,4.76,0,0,0,.5-.87,3.68,3.68,0,0,0,.09-.82l-.75-.07-.09,1.66c-.87-.58-1.42-.3-1.68.75l-.26-.05-.6-1.86-.73.69.74,1.1-1,.88c-.22-.7.16-1.54-.66-2.23,0,.78,0,1.24,0,1.71s-.09.81-.72.47c-.17-.08-.55.22-.82.35s-.79.56-1.13.52a2.37,2.37,0,0,0-2.19.56c-.77.82-1.49.27-2.18,0-.28-.11-.4-.63-.66-1.09l-.5.55.86,1.85-.42.27L37,85.4l-1.1,1,1.55.7c-1.23.1-2.21.87-3.33.24l-.48.88-.13-.37-1.7-.1c.33-.67.66-1.34,1-2.05-.9,0-1.25.81-1,2.05l.51.35c-.16.17-.29.43-.49.48a.73.73,0,0,1-.6-.25c-.13-.17,0-.53-.19-.67s-.6-.46-.78-.38a8.71,8.71,0,0,0-1.4.93l.28,1.31H27.39c-.76-.58-.62-2-2.14-2.27.56.79.93,1.38,1.38,1.9.17.19.52.23.79.34l-.53.75-.82-.66v.5l-3.58.36-.1,1-.34-.55L19.6,92.33a8.42,8.42,0,0,0-.25-1,2.39,2.39,0,0,0-.48.09l.21,1c-.64-.27-1.16-.46-1.65-.71s-.93-.57-1.34-.83l-.81.67,1.26.45,0,.35-2.37.79L13.1,91.52l-.46,1,1,.42-1.79,1.38-.33-.2c1.1-.73.4-1.16-.25-1.77.56,1.7-.19,1.71-1.5,1.68-1.59,0-1.82.06-2.1-1-.07,0-.17,0-.2,0-.84,1-1.05,1-2-.23-.53-.65-1.14-1.23-1.86-2l-.14,1.75a2.55,2.55,0,0,1-.72-1.9c.07-.78.19-1.56.3-2.45-1.13.06-1.87,1.56-3,.51L2,87l-.34-.46L3,85.92l-1.25-.71,2-.24-.26-.65.65-.51,1,1,.48-2.38.91.79a11.19,11.19,0,0,0,1.8-.29A1.48,1.48,0,0,0,9,82.17a3.46,3.46,0,0,0,0-1.15l.68.58c1.09-.84,1.09-.84,1.86.64l1.67-1.91c-.14,1.43.59,1,1.47.74a3.11,3.11,0,0,1,2.5.37A.75.75,0,0,0,18.45,81l-1.67-.29c.76-.39,1.24-.82,1.74-.84.29,0,.62.61.93,1l.29-.26L18.3,78.67l.13-.15,1.91,1.32,1-.54.12-.9.62.35,3.4-1.29.17.23-.65.89,1.76-.19-.07-.34-.64.19.06-.85.9-.7,0-.38,1.41.55a.43.43,0,0,0,.27,0c1-.39,2-.78,3-1.19.6-.24,1.18-.52,1.86-.83v-.51l.24-.19,1.36,1.39a35,35,0,0,1,3-1.93c.35-.18.94.08,1.44.25l2.91.33-.33-1-.88.23-1.11-.93c.43-.2.83-.42,1.24-.57a11.32,11.32,0,0,1,1.24-.28c.66.84,2,.85,3.32-1.35l1.25,1.27,1.54-1.37c-.2-1,1.13-.33,1.54-.87l-.09-.75.22-.05.28.87H51l.29-.72.73.13-.26,1.28,2.68-1.86,0,.08L56.12,67c1,.89,1.4.8,1.94-.27,1.32.46,1.39-.62,1.65-1.23.28.19.69.64.88.56A9,9,0,0,0,62.12,65l6.23-3,1,.88.17-.2-.62-1.2.48-.23L70,62.48c1.37.23,1.21-1.06,1.46-1.7,1.46-.44,3,.12,4.29-1.11l-1.6-.55,1-.36a3.86,3.86,0,0,0,.85.62,3.67,3.67,0,0,0,1.15-.05l-1.55-.72,3.73-.38-.22-.29,1.89-1.47-.15-.33.71.32c1.16-.85,2.21-1.59,3.76-.77l0-.34-.57-.5.06-.31,2,.25c.13-.81,1-1.34,3.33-2l-.25,1c1.21-.55,2.25-1,3.3-1.5a1.11,1.11,0,0,1,.65,0c.31.06.61.19,1.14.36-.58-.83.37-2.12-1.5-2.07,1.3-.64,2.17,1,3.22,0l-.83-.69,2.81-.59-.41-.46c.85-.07,1.86.13,2.17-1.25l1.88.51,0-.2-1-.54,1.11-.52c.27-.11.54-.19.81-.28l.19,1,1.68-.65-.87-.34a5.76,5.76,0,0,1,.78-.31,5.59,5.59,0,0,1,1.08-.13,5.2,5.2,0,0,1,.78.1l-.26-1.07,1.27-.22-.31-1.14,1.06.76,2-1.1-.48-.52a2.58,2.58,0,0,0,.8-.13c.67-.33,1.3-.73,2-1.08.14-.08.35,0,.52-.07.81-.24,1.47-.63,1.46-1.61.32.1.32.1.3,1.91l1.21-1.44c-.16-.27-.4-.68-.6-1.1a2.52,2.52,0,0,1,.48-.28c.23.29.43.62.71,1.06l1.51-.37-.79-.39c.17-1.08,5.43-3.69,6.57-3.4l1.68-1.26-.38-.45c1.23-.62,2.92-.59,3.12-2.5l.52.92a10.44,10.44,0,0,1,2.92-1.43c.6-.13,1-1.25,1.54-2l2.79.53.11-1.22c.81.44,1.42.49,1.67-.67l.75,1.57,2.46-.89.11.32a3,3,0,0,0-.76.4.79.79,0,0,0-.07.63c0,.1.28.14.44.2l.81.25c-.12.74-.17,1.21-.28,1.67,0,.17-.21.31-.26.48a2.87,2.87,0,0,0-.12.72c.85.24.27.92.37,1.35a4.92,4.92,0,0,1-.18,1.63l-.2,1.67c.62.45.76.3,1.27-1.59l.67,2.22.13,0-.08-1.44c.36.25.8.41.8.58a4,4,0,0,1-.27,1.56c-.06.15-.57.12-1,.19-.4,1.82-3,1.54-3.71,3.39-.65-.34-1.14-.22-1.22.66,0,.11,0,.25-.07.3a33,33,0,0,1-2.75,2.12c-.18.12-.81-.17-1.05-.44-.43-.5-.76-.51-1.15-.12l1.45,1.35a10.69,10.69,0,0,0-1.68.31,5.1,5.1,0,0,0-1.74.88c-.56.55-.8.27-1.12-.26l-.49.65,1.57.63c.25-1.16.86-1.53,2.15-1a13.08,13.08,0,0,0-1.71,1.32c-.66.68-1.16.19-1.79,0a3.71,3.71,0,0,0-1.47.15l-.56,2.79L129,51.08c0,.22.16.68,0,.78a5.63,5.63,0,0,1-1.2.63l-2.25,1.88.17.45a21.89,21.89,0,0,1-1.84,1.6,1.22,1.22,0,0,1-1,0,4.15,4.15,0,0,1-.89-.74c-.42,1.17-.19,1.49,1,1.74l-.94.42c.15,1.17-1.19.95-1.84,1.58l.46.77-3.34,1.56.76.66a5.65,5.65,0,0,1-1.63.61c-.25,0-.53-.59-.8-.91l-.26.15.87,1.93c-1.3,1.12-2.69,2.33-4.09,3.52-.7.61-1.1.3-1.31-.46-1.19,1,0,1.27.74,1.69l-1.39,1.17c.07.21.15.41.15.4-.42.48-.7.84-1,1.15-.11.11-.35.08-.5.16a4.36,4.36,0,0,0-.46.41c.21.07.45.24.6.19a10.06,10.06,0,0,0,1.47-.73c.4-.23.77-.54,1.26-.88a3,3,0,0,1-.13-.3l1.29-.79.72.94,1-.32-.45-1,1.51.55c.23-1,.65-1.77,1.94-1.5.23,0,.62-.5.88-.82a1.92,1.92,0,0,0,.22-.65l.71.45-.15-1.45c1.23,1.5,2.41,1.1,3.55.15l-1.69.47.43-1.47c1.5.74,2.64-.48,3.87-.34l.12-2.07,1.67.29.22-.63,2.27-.42c-.09-.75.66-1.35,2-1.63l-.17-.62H133l.22,1.08c.8-2.26,2.23-2.91,4.13-2.23v-2l.31,0,.24.57h2.42a14.16,14.16,0,0,1,.63-2,1.19,1.19,0,0,1,1.82-.16c.7.55.7.55,1.63.32l-1.2-.83c.73-.51,1.37-1,2-1.4.07-.06.19-.14.26-.12,1.47.41,2-.81,2.47-1.68.56-1.09,1.1-.37,1.65-.24s1,.35,1.54.53l.13-.25-.82-1.25.06-.27,1.21.33V49a2.48,2.48,0,0,1,1.63-.23c.47,0,1-.69,1.59-1.17.81.26,1.64-.28,2.18-1.74l1.33.41.11-.25-.78-.5.07-.26,2.27.73.15-.32-.59-.54a15.56,15.56,0,0,1,1.49-1.62c.19-.16.65-.05,1,0,1,.22,1.93.35,2.54-.7.06-.12,0-.29,0-.63-.7.59-1.2,1.42-2.38.47l3.78-1.58-.44,1.32c.66.1,1-.18.84-.77A1.37,1.37,0,0,1,168.07,40c.2,0,.43-.23.64-.37s.55-.36,1-.65v-.32l1.41.2-.19-.34a12.15,12.15,0,0,1,1.17-1.31c.16-.13.55,0,.82,0s.84.21,1.26.32l.11-.32-.7-.36c.49-.63.92-1.24,1.42-1.79.1-.1.47.05.72.08l1.46.17.09-.33-.57-.89,1.37-.11L177.7,33l.21-.16.34.6,1.24-.54-.43,1,.24.16c.18-.47,1.54,0,.76-1.36-.21-.36.47-1.23.79-2l.71-.06-.15.75,1.52-.16-.14-1a3.44,3.44,0,0,0,2.71-2.18.1.1,0,0,1,.08,0c1.56.14,1.95-1.46,3-2a5.51,5.51,0,0,1,1.81-.17l.1-.69-.88.16c.71-1.18,1.32-2.14,2.71-2.34l.17,1c1.71-2,2-2.07,3.08-1L197,22.2l.44,1.13.29-.07-.28-1.35c.22.07.61.08.8.28a1.17,1.17,0,0,0,2.06-.34c.08-.18.4-.26.78-.2l-.4,1,1-.63a3.61,3.61,0,0,0-.55,1.18c0,.31.32.64.53,1L201,25.85l-.33-.12.08-.79-1.46.66,2.1.79.54-.62.9.47a10.34,10.34,0,0,0-1.05,1.18,5.66,5.66,0,0,0-.46,1.12l2.07.3.09-.92c1,.73,1-.23,1.2-.75l.29.17c-.33.63-.69,1.25-1,1.91a5.61,5.61,0,0,0-.14,1.1c-.11.61-.25,1.22-.38,1.82-.23,1-1.5,1.15-1.87,2.23-.24.7-1.29,1.18-2.05,1.63-.23.13-.71-.19-1.2-.34.08.69-1.48.51-1.17,1.84a5.75,5.75,0,0,1,.59-.43c.33-.14.67-.25,1-.37-.15.34-.21.78-.46,1s-1,.43-1.33.76a6.24,6.24,0,0,0-.87,1.28l-.7-.26c-.23,2-1.8,3-2.75,4.46l-.22-.16-.22-1.58-1,1.11,1,.5a3.09,3.09,0,0,1-.31.57c-.39.44-1,.68-.93,1.45,0,.19-.37.5-.64.62-1,.48-1.22,1.58-1.77,2.4a5.89,5.89,0,0,1-1.59,1.23c-.33-.21-.65-.43-1-.68l-.55,1.23.2.27,1.38-.84c-.2,1.43-.2,1.43-2.22,1.37.73,1.24.44,1.93-.9,2.61-.36.18-.47.82-.76,1.22a5.53,5.53,0,0,1-.74.71c0-.55.1-1.17-.69-1.26a2.06,2.06,0,0,0-.63.12,2,2,0,0,0,.38.53,10.36,10.36,0,0,0,1,.58c-1.09,1-1.22,1-1.71-.16-.73.62-.51,1.13,1,1.71l-1.54.76a3.7,3.7,0,0,1-.29,1c-.24.4-.6,1-.91,1s-.93-.43-1.38-.7a8.57,8.57,0,0,1-.79-.55l-.16.34.55.1c-.09,1.21.23,1.48,1.59,1.32l-2.23,1.89-1.36-.12,1.51,1c-1.06.62-1.28,2.19-2.9,1.69-.25-.08-.68.4-1,.66a.47.47,0,0,0,.07.44c.12.09.34.06.52.07l.77,0a2.53,2.53,0,0,1-.35.74c-.41.45-.88.84-1.32,1.26l-1.21,1.13.58.35c-1.13,0-.66,2.18-2.1,1.54l-1,1-.66-.95c-.3.69-.3.69,1.39,1.77-.67.29-1,1.27-2.07.32l.87,2.68a5.69,5.69,0,0,1,1.08-1.26c.17-.11.65.25.89.52h1.12l-.55-.61c1.75-2,4.28-2.89,6.68-4.09l.56.78c.07-.54,0-1.24.2-1.29a8.93,8.93,0,0,1,1.87-.2l-.63-1,.2-.25,1.83.66c-.09.1,0,0,0,0,.12-1.39.41-1.66,1.67-2.07a5.83,5.83,0,0,0,1.51-1.06c.5-.38,1-.78,1.6-1.28l.31.62.91-.67.56.39L190,63.4a8.55,8.55,0,0,0,1.63.11c.14,0,.16-.57.33-.79.34-.44.69-1,1.16-1.17.28-.1.79.49,1.44.93,1,0-.21-1,.22-1.36s.71-.77,1.24-1.35a5,5,0,0,0,2.5-1.37A11.62,11.62,0,0,1,202,56.59c.27-.11.76.33,1.39.63l.31-2.88,1.6.38c2.87-.53,4.33-3,6.72-3.94v.45l.26.07.47-1.34c.17-.25.33-.51.52-.74a1.39,1.39,0,0,1,.36-.23,1.85,1.85,0,0,1,.12.4,2.59,2.59,0,0,1,0,.47c1.43,0,1.47,0,1.41-1.11l.72.23.85-1.17,1.93.13.06-.33L218,47.1l.9-.47-.29-.91.23-.18.33.84.23-.2-.23-.83c.09-.06.18-.14.2-.13,1.46.93,2-.8,3-1.09a8.42,8.42,0,0,0,1.06-.51v-.5l1-.08-.14-.17a4,4,0,0,1,.6-.56c.82-.53,1.65-1,2.66-1.65l.26,1.19c.21-.37,1.15-.3.7-1.06l.84-1.33c.7.1,1.48.15,1.74-1,.14-.64,1-.62,1.8,0l.91-1.11-1.08-.2c.64-.49,1.17-.91,1.72-1.29.18-.13.48-.29.64-.23.56.23.79,0,1-.49a.59.59,0,0,1,.53-.18c.77.26.91-.17,1.3-.74a2.88,2.88,0,0,1,2-.91,2.19,2.19,0,0,0,2.37-1.81l.12.78A22.71,22.71,0,0,1,244.13,30c.47-.44,1-1,1.84-.58.1.06.6-.29.62-.49.09-.88.95-2,1.75-2,.3,0,.6.36,1,.63L250.9,25l.83.35.48-1.21.52.46-.07.64.77-.43c-.29-.61-.88-1.05,0-1.75.5-.36.73-1.07,1.54-1,0,0,.13-.53.4-1l.32.83c.3-.65.52-1.11.72-1.58a1.57,1.57,0,0,0,0-.37c1.16,0,1.66-1,2.48-1.56.46-.3.65-.94,1.4-.93a4.92,4.92,0,0,0,1.47-.46,3.57,3.57,0,0,1,.17.36c.38,1.44.74,1.55,2,.64.55-.4,1.1-1,1.83-.36.23.19.36.51.61.66l-.74-.83-.35.34c-.15,1.23.22,1.63,1.33,1.49.14,0,.3.13.46.19l1.21.47.18-.26-.35-.8.25-.16a4.38,4.38,0,0,1,.45.7c0,.11-.11.3-.15.4.43.85,1.36-.84,1.62.07L267.66,23l.16,1.61a5.23,5.23,0,0,1,.66-.53,4.17,4.17,0,0,1,.63-.18,1.71,1.71,0,0,0,0,1.7c.19.25.64.3.94.43A19.9,19.9,0,0,1,268.2,29a3,3,0,0,1-1.93.62,5.45,5.45,0,0,1-.66.78,2.63,2.63,0,0,1-.7.32l.56.82,1.12-1,.17.15L265.52,32l-1.7-.48v.87l1.23-.26c-.18.32-.25.59-.41.67a1.65,1.65,0,0,1-.8.13c-.41,0-1-.3-.93.44,0,.21.58.36,1,.63,0,.94-1.07.36-1.53,1.06l-.56-1.85c-.54.5-.32,1.79.67,2.59a8.51,8.51,0,0,0-1.71.85,2.25,2.25,0,0,0-.6,1.32l-1.33,1H258c.46-.61.4-1.08-.6-1.17,1.28,1.6-.79.92-1.2,1.85.69-.06,1.16-.12,1.63-.12a8.28,8.28,0,0,1,1,.12l0,.38c-.61.39-1.26.74-1.83,1.19-.22.18-.26.59-.48,1.15-.63.18-.93,1.53-2.24,1.34a4,4,0,0,1-1.77,3,.71.71,0,0,1-.55.18,2.55,2.55,0,0,0-2.3.31l.09.69,1.83-.42c-.62,1.77-2.5,1.86-3.42,3.11l.94.23c-1,.94-2,1.77-2.86,2.62-.08.07-.08.23-.1.35-.13.7-.45.71-1.08.29l.32,1.3-.76.56-.16-1-1.43.23,0,.29,1.35.57-1.15,1.33-.11-1.54-1.28.82-.12-.14.59-.78-1.52-.15c0,.22-.11.6,0,.71.54.45,1.18.8,1.73,1.25.18.14.19.5.28.76a5.68,5.68,0,0,1-.72-.11,8.71,8.71,0,0,0-1.74-.46c.48.73,1.34,1.23.85,2.25l-.78.18-1.2,2.29-.32-.06v-1.5c-1.27.6-1.45,1.33-.5,2.4-1.6,1-1.63,3.5-3.78,4.12-.87-1.09-1.06-.11-1.42.78l-.67-1.35-.35,1.68c1.08.67,1.79,0,2.42-1.15a1.39,1.39,0,0,1-.69,2c-.51.27-1.21.95-1.74-.1-.06-.12-.33-.15-.5-.21a2,2,0,0,0,0,.6c.07.37.2.73.31,1.14l.92-.06.4,1.45-.44-.4-1.31.79a5,5,0,0,1-.14,1.41c-.13.33-.5.56-.63,1,.85-.33,1.7-.64,2.54-1,.2-.08.5-.23.51-.38.16-1.7,2.1-1.24,2.76-2.31.68.37.61-.21.73-.56a1.39,1.39,0,0,1,1.76-.56c.24.12.83,0,.92-.13.31-.59.55-1,1.36-1a5.86,5.86,0,0,0,2-.93l-.74-1.22,1.36.35-.07-.58h2.34l-.5-1.38.7-.31c.32.4.6.75,1,1.28.3-.75.46-1.25.7-1.71a.77.77,0,0,1,.56-.31c1.32,0,2.52-.21,2.65-1.79L253,63l.1-.32-.76-.37c.43-.56.73-1.31,1.27-1.56s1.27,0,2.06.09l.29-1,1.18.06L258,58l.49.73L261,57l-.21-.47.18-.21,1,.81a4.36,4.36,0,0,1,4.73-1.44l-.56-1.3,1.71-.33-.79,1.36c1.13-.22,1.37-.78.94-1.78l3.37-1.7L271,50.76c1,.48,1.74.66,2.31-.43.08-.16.63-.18.92-.11a13.28,13.28,0,0,1,1.48.57l.14-.29-.36-.31,1.33-1.65c.77.6,1.4-.09,2.05-.88.38.51,1,1-.18,1.68l.81-.06c0-1.08,1.11-1.4,1.51-2.23a2.44,2.44,0,0,1,3.3-1.29,2.53,2.53,0,0,0,.42,0l.06-.93,1.87-.21.07.32-1,.29.08.27a5.65,5.65,0,0,0,1.2-.41c.16-.09.11-.49.21-.73a3.1,3.1,0,0,1,.56-.95c.12-.12.5,0,.73,0a13.48,13.48,0,0,1,1.28.55c-.29-.75-1-1.38.16-1.63l.37.66c.47-.5,1.84.05,1.28-1.58l.32.09.62,1c.64-1.57,2-1.53,3.38-1.71.42-.06.76-.6,1.27-.83-.2.92-1.08,1.42-1.55,2.17-.06-1.12-.76-.21-1.14-.31-.17-.05-.47.35-.69.58a1.14,1.14,0,0,0,.27.34c.87.64,1.1-.31,1.59-.64.11.6.32.84.74.19.15-.22.28-.45.42-.67l.26.2L296,43.16c1,.2,1.41,1.65,2.71,1l.38.6-3.9,2.13L295,46l-.25-.05-.35,1.25,1.05.31-.06.3-1.34-.29c-.19,0-.46-.1-.56,0-.47.42-.84.24-1.22-.12a4.91,4.91,0,0,1-.37,1.1c-.3.48-1.22.28-1.27,1.09l-.66-.24-.24,1.42-1.07,0,.46.74a9.53,9.53,0,0,1-1.31.28,2.49,2.49,0,0,1-1.17-.19,5,5,0,0,0-1.64-.18.7.7,0,0,0-.41,1.21c.06.09-.09.5-.17.51-.74.09-1,1.14-2,.84-.32-.09-1.05.54-1.31,1-.43.77-.82.77-1.45.31a3.28,3.28,0,0,0-1-.31,6.74,6.74,0,0,1,.54,1.47c0,.18-.44.4-.77.69l-.3-1.3-.81.76L276.87,55c-.46,1-.8,1.76-1.15,2.51l-.19,0c0-.6.09-1.19.13-1.76l-1.19.72c-.06.53,1.1,1.41-.17,2.26l1.06.22c-.62.5-2.15.55-.7,1.94-.41-.12-.66-.12-.79-.25-1.2-1.14-1.2-1.14-2.39.25l1.11.3v.13c-.34,0-.74-.15-1,0s-.2.56-.32,1h-.49c-.2-.6-.35-1.08-.57-1.76L268,63.62l-1.77-1.17-.24.17,1.45,2.13a5,5,0,0,1-1-.58c-.62-.61-1-.56-1.2.41l-.8-1.62c-1,.61-1,.74-.14,1.94-.53.28-.53.28-1.66-.68a1.53,1.53,0,0,1-2.27.48c0,1,.2,1.18,1.13,1.12,0,.7,0,.7-1.13.52-.07,1-.14,2-.2,2.94l-.76-.46-.84.41-.2-.24c.78-.75,2.08-1.21,1.59-2.69-.22.1-.69.21-.71.37-.16,1.53-1.3,1.5-2.45,1.54l.19,2.28-2.21.64-.11-.27,1.36-.82v-.67a5.79,5.79,0,0,1-1.44.51c-.64.05-.63.16-.49.76s-.28,1-.53,1.53a11.68,11.68,0,0,1-.87,1.28c-.11-.53-1.76-.27-.61-1.66L250,72.5l.56,2.35-1.84-1.14.17-.25-1.25.51-.14-1.09-.31,0c.09.52.14,1.06.28,1.57.06.19.4.49.52.45,1.54-.5,1.28.87,1.62,1.62L248.52,75l-.45.38.48,2a1.65,1.65,0,0,1-.52-.23c-.46-.32-.86-.64-1.32,0a.76.76,0,0,1-.68-.09,8.28,8.28,0,0,1-.51-1.31c.15,0,.39-.13.42-.08a8.66,8.66,0,0,1,.5,1l1.54-.85-1.89-1.49.12.92L245.12,75c-.77,1.38.77,2.51.34,3.9-.44-1-.89-1.94-1.34-2.94-.37.39-.4,1.41-1.41,1.25,0,0-.11.53-.16.81a2.59,2.59,0,0,0,.8-.09c.19-.09.31-.35.64-.73.57,1.17-.21,1.6-.77,2.09.5.8.5.8-.33,1l.24-.63c-1.3.25-2.22.2-1.28-1.59l-2.18.85-.92-.37L238.26,80l-1.21-.58v2c-.29-.08-.88.74-1.37-.17a5.28,5.28,0,0,0-1.19.41c-.37.16-.73.37-1.16.59a14.16,14.16,0,0,0,0,2.32c.06.31.64.53,1.12.9-.35.08-.84.35-1,.21a2.59,2.59,0,0,1-.87-1.21c-.19-.58-.18-1.24-.42-1.88-.09.7-.77,1-.8,1.82s-1.48,1.23-2.42.87a4.57,4.57,0,0,1-.62-.44,2.73,2.73,0,0,1-.49,3.92l-1.11-.64c-.54.32-1,.82-1.56-.06-.07-.13-.41-.11-.62-.15l-.2,1-.93.3,0,.37,3.45.19c-.71.38-1.23.68-1.77.94a.64.64,0,0,1-.48,0c-.4-1.13-1.16-.21-1.72-.32l0,0,.29-1.29c-.95.24-1.5.54-1.74,1.38a4,4,0,0,1-1.67,1.82c-.69.51-1.32,1.1-2,1.67.22-1.07.22-1.07-2-1l1-.94-1.28-1.07-.22.28.55.46-1,1,.12.33c-1.22-.28-1.64-2.16-3.27-1.65V90.18l-2.14-.27c-.27,0-.54-.11-.81-.17.16-.23.28-.55.51-.67s.51,0,1,.09V87.69H209a5.5,5.5,0,0,0,.18-1,4.37,4.37,0,0,0-.31-1l2.21-1c-.77-1-1.44-1-2.13-.16-.36-1.42-.14-1.57,1.47-1.32.45-.78.84-1.46,1.22-2.14a1.74,1.74,0,0,0,.28-.74c0-1,.51-1.46,1.68-1.35L213,77.48a4.08,4.08,0,0,0,1-1.47c.2-.8.38-1.31,1.27-1.51.22,0,.27-.86.42-1.4l1.19-.56c0-.71,0-1.46.78-2,.27-.17.29-.71.52-1a.92.92,0,0,1,.7-.35,3.69,3.69,0,0,1,1,.59c.42-.42-.14-.91-.24-1.39-.06-.29-.31-.66-.2-.86a27.87,27.87,0,0,1,1.77-2.91c.21-.3.81-.33,1-.62a12.77,12.77,0,0,0,.72-1.54c.17-.32.48-.57.66-.88a5.73,5.73,0,0,0,.35-1l1.88-1.36c-.4-.47.22-1.57-1-1.7-.16,0-.4-.31-.43-.28-.22.19-.56.45-.54.64.1.69-.21.72-.72.58-.1,0-.26-.09-.27-.07-.79,1.21-1.81.71-3,.16.76,1.37-.1,1.79-.84,2.34-1.1.82-1.31-.87-2.32-.77.14.35.24.6.35.84s.26.5.39.75l-.78.1c-.13-.12-.31-.23-.37-.38-.13-.34-.21-.7-.33-1.11-.44.36-.68.56-.93.75s-.31.17-.46.26l.17.31.66-.31.37.81.92-.33a1.32,1.32,0,0,1-2.12.79c-.22-.24-.22-.67-.32-1l-.32,0v1.57l-1-.06c-.14-.63.62-1.47-.42-2a6.12,6.12,0,0,0-.25.78,1,1,0,0,0,.69,1.18l-.54.85.92.4c-.05.15-.06.3-.12.33-1.09.53-2.19,1-3.27,1.56-.54.28-.73.26-.62-.42,0-.2-.25-.44-.39-.66l-.31.22.34.73-.92.47-.17-.93-.27-.09c-.2.89-.44,1.71-1.48.83l-.72,1.12c.28,0,.63.22.72.13.86-.83,1.3,0,1.89.37-.85.2-1.78,0-2.24,1-.07.16-.49.17-.76.21-.63.12-1.31,0-1.8.59-.11.13-.43.08-.65.12a2.06,2.06,0,0,0-1.08.37l.82.25a1.14,1.14,0,0,1,0,.19,2.89,2.89,0,0,1-1,0c-.29-.09-.49-.46-.78-.57-1-.4-1.32-.14-1.23,1.15l.35-.59,1.26.61c-.53.59-.51.54-1.32.3-.27-.08-.64.14-1,.22l.06.25,1,.28-.05.27h-2c.17-.4.32-.8.51-1.27l-1.11-.2.2-.94-1.12.42,1.54,2a.62.62,0,0,1-1,.33l-1.16-.82c-.61,1.17.59,1.35,1,2-1.19.1-1.89,2.47-3.22.75l-2.16.19,1.22,1.46-1.26.25-.41-1.52h-.39l-.15,2.17-.75.26-.23-1-.3-.09-.39,1.53.94.07c-.66.88-.83.78-1.88-1-.55.44-.55.44.69,1.82l-1.63.62-.31-1.4-.34.09v1.52l.6.14.06.34a13,13,0,0,1-2.33.51c-.32,0-.66-.5-1.17-.93l.2,2.13H183L182.08,80l-.34.06c.17.65.19,1.14-.69.91a1.13,1.13,0,0,0-.79.18c-.14.09-.16.38-.23.58.19,0,.47.17.55.1,1.19-1.12,1.37.21,1.91.64l-.06.29-1.68-.18v1.27c-1.66-1.16-2.16.38-3.13,1.09l.39-1.51-1.75.64,1.23,1.36-.16.32-2.07-.63.56,1L173,87.64l-1-1.93-1,1.48c1,1,.93,1.44-.17,1.83l-.19-.86-1,.38.46.66a3.13,3.13,0,0,1-.84.06c-.88-.18-2.05.44-2.55-1.16l-.45,1.62,2.36.17c-.38,1.28-1.55.67-2.06,1.14-1,.93-1.41-.4-2.21-.34,0,.3.1.61.12.91s.1.8,0,.85a2.59,2.59,0,0,1-1.08.11,8.15,8.15,0,0,1-1-.22l.43-.45c-1.18-.52-1.76-.35-1.88.51-.5-.34-1.56-.12-1.22-1.15-.34.14-.66.38-1,.35s-.53-.33-.83-.54A2.38,2.38,0,0,0,160.9,92.44Zm24.36-13.9-.7.36-1-.62-.15.21,1.66,2.21c0-.78.1-1.48.14-2.17.13-.11.36-.2.37-.31,0-.45,0-.9,0-1.36l-.21-.14a4,4,0,0,0-.56,1.08C184.8,78,185.11,78.29,185.26,78.54ZM175.13,83.1l-.24-.29c-1.4,0-1.57,1.12-1.93,2s.58,1.18,1.1,1.63l1.18-.62-1.66-1.39Zm67.29-28.78c.25.26.25.26,1.08,0,1.42-.4,1.41-.4.84-1.66-.1-.21,0-.49-.09-.71a3.06,3.06,0,0,0-.26-.52C242.85,52.1,243.79,53.71,242.42,54.32Zm-32.56,9.2,1-.47-.15-.3-1.88.92c.32.48.56.85.81,1.2s.66,1.3,1.3.22c.06-.1.23-.14.52-.3Zm29.78-5.31-.72,1-.11-.29-1.06.22c.43.91-.4,1-.95,1.29l.21.33,1.8-.9.14.29,1.08-.82ZM227.91,85.63l-2,1.38c.4,1,1.11-.43,1.56,0l.09,1,.3,0a7.19,7.19,0,0,0,.24-.79c.06-.36.08-.74.12-1.1h.28Zm7.73-21.47a4.46,4.46,0,0,0-.82-.41.57.57,0,0,0-.41.24,2.05,2.05,0,0,0,.26.7c.06.1.22.14.31.24s.41.59.52.56c.33-.08.82-.3.87-.54s-.21-.73-.37-1.19Zm-63.45,2.52v-3.2A2.11,2.11,0,0,0,172.19,66.68Zm-8.36,23.8c1.28-1,1.46-1.39,1-2.57C164.64,88.88,162.77,89,163.83,90.48Zm91.09-48.06c1-.38,1.42-.86,1.13-1.61-.62.62-1.25,1-1.49-.32l-.53.65ZM74.51,69.67c.41,1.27-.85,1.21-1.73,1.67l1.07.46-.11-.28c.34-.26.65-.66,1-.74A3.09,3.09,0,0,1,76,71l.06-.19Zm33.19-.81L107,71.2l.24,0,.94-1.58v1C108.94,70.1,108.77,69.47,107.7,68.86Zm121.84,2c1.26-.46,1.55-1.38,1.06-2.7l-.84.59.55,1ZM125.84,50.76l-1.09,1.76c1.06-.08,1.17-1.93,2.21-.71l.33-1.05Zm42.94,18.16.22.28c.33-.22.66-.63,1-.62,1,0,.72-.84,1.07-1.25,0,0-.32-.43-.51-.64l-.18.09.24.57Zm-56.52-4.75-.47.21,1.26,2.12C114.39,64.82,112.24,65,112.26,64.17Zm91.23-33.51c-.88-1.29-.88-1.29-2,.47Zm90.7,14.61-.28-.11L292,46.74c.49.06,1.16.32,1.37.12A5.15,5.15,0,0,0,294.19,45.27ZM223.74,56.43c-.32.37-.51.87-1.16.56-.14-.06-.47.09-.61.24a1.91,1.91,0,0,0-.26.67c.22,0,.45,0,.67-.08s.33-.23.44-.19C224.11,58,223.8,57.13,223.74,56.43ZM36.09,83.25l-.21.32L37,84.91l1-1.73C37.16,82.87,36.87,84.57,36.09,83.25Zm7.46,0L43.31,83l-2.47,1c.55.19,1,.49,1.19.38A10.83,10.83,0,0,0,43.55,83.25Zm70.71-21.17h-.32v2.09l1.53-1-.16-.26-1,.2Zm90.79,6.78.39-.31c-.29-.41-.51-1-.9-1.17s-.78.41-1.19.65l.14.35C204.2,67.88,204.76,67.89,205.05,68.86Zm21.61-14.34c-.39,0-.71-.08-1-.08a.41.41,0,0,0-.28.23c0,.09.07.32.11.32a3.33,3.33,0,0,0,1.46-.11c.23-.12.2-.74.28-1.14l-.38-.06Zm.28,1.77-1.87.28,1.11,1.27Zm20.3-5.85-1.17,1.06C247.45,52,247.5,52,247.24,50.44Zm-20.91,1.69.19.25,1.53.13L228,51.29c-.43.27-.72.48-1,.64A4.08,4.08,0,0,1,226.33,52.13Zm-51.84,8.69c-1.07.52-.5,1.35-.55,2l.31-1.29.66.74.25-.15Zm-78,1.65-.39-2.21C95.79,61,95,61.89,96.49,62.47ZM185,66.87c.21.14.54.45.64.39a10.23,10.23,0,0,0,1.3-1l-.26-.35Zm67.91,5.48.74-2-1.55,1Zm-90.22,17c-1.74.55-2.21,1.12-1.59,1.73ZM123.1,78.19l.55-1-.18-.27-1.87.74Zm77.22-9.12,1.12-.71,0-.26h-1.93ZM168.13,86.66l-1.07-.08-.57.82C167.14,87.28,168,87.71,168.13,86.66Zm-128.2-2c.24-1.19-.23-1.52-1.27-1.32Zm83.3-29.28.26-.05V53.68l-1-.34ZM8.8,92.09l-.22-.18c-.08.35-.31.75-.2,1s.54.63.83.94l.16-.2Zm86.81-2.74-.22.32,1.14,1.5.27-.1a3.37,3.37,0,0,0-.33-1A5.2,5.2,0,0,0,95.61,89.35ZM58.85,77.42l1.08-2-2.1,1.5Zm117.08,4.16.91,1L178,80.88C177.06,81.13,176.84,82.5,175.93,81.58ZM71.56,70.7a4.23,4.23,0,0,0,1-.11,9.23,9.23,0,0,0,1.2-.67A2,2,0,0,0,71.56,70.7ZM185.68,49.14c-.07-.85-.37-1.36-1.12-1.4l-.42.41ZM116.57,81.79l.34-.32c0-.94-1-.69-1.42-1.08l-.25.29Zm119.12,1.32c0-.56-.11-1.11-.77-1.13-.16,0-.23.71-.76.43a4,4,0,0,0-.15,1c0,.1.4.28.57.24a7.56,7.56,0,0,0,1.13-.51ZM2.15,91.5l-.65-.92.73-.13-.86-.89c-.16.3-.31.61-.48.9s-.25.35-.45.64ZM144.6,35.58c-.6-.34-1.11-.66-1.65-.92a2.08,2.08,0,0,0-.75,0,1.27,1.27,0,0,1,.33.41,5.62,5.62,0,0,1,.16,1c.65-1.26.89-.42,1.22.36Zm153.86,5.78,1,.5.23-.28-.59-1.17h-.32l-.33,1ZM155.85,60.66l.94-1-1.21-.57V60.5ZM298.46,41.37l-.79-.76-.25,1.2a5.33,5.33,0,0,0,.58.63,3.72,3.72,0,0,0,.58.35c-.63-.78-.63-.8-.12-1.43C298.46,41.36,298.47,41.38,298.46,41.37ZM235.71,83.09c.23.29.44.59.73,1,.28-.65.51-1.18.75-1.71l-.21-.15-1.29.9ZM223,90.33l-.71-.6-.65,1.77c.18,0,.39,0,.41-.1.18-.46.35-.9,1-.8l-.06-.31Zm165.18-67a24.82,24.82,0,0,1,8.23,1,20.88,20.88,0,0,1,6.21,3.16,10.61,10.61,0,0,1,1.83,1.78,25.9,25.9,0,0,0,1.84,2,8.37,8.37,0,0,0,.82.7,1.15,1.15,0,0,0,1.21.19,5.53,5.53,0,0,0,2.66-1.84,12.13,12.13,0,0,1,2.4-2.21,19.86,19.86,0,0,1,3.8-2.35A49.07,49.07,0,0,1,421.7,24a22.86,22.86,0,0,1,2.47-.45c1-.12,2-.21,3-.25a25.32,25.32,0,0,1,3,.06,23,23,0,0,1,2.6.38,5.46,5.46,0,0,0,1.14.13,3.27,3.27,0,0,1,1.14.25q1.77.51,3.42,1a12.55,12.55,0,0,1,3,1.39,20.09,20.09,0,0,1,8,9.63,12.29,12.29,0,0,1,.76,2.34c.17.8.33,1.58.5,2.34.09.6.15,1.14.19,1.65s.11,1,.19,1.52v1.27a7.64,7.64,0,0,1,.07,1.77c0,.68-.07,1.31-.07,1.9V81c0,.67,0,1.45.07,2.34s0,1.73,0,2.53a13.33,13.33,0,0,1-.32,2.28,2.47,2.47,0,0,1-.76,1.46,3.29,3.29,0,0,1-2,.7c-.81,0-1.67.06-2.6.06h-6.71a17.8,17.8,0,0,1-3.17-.25,2.4,2.4,0,0,1-1.9-1.4,5,5,0,0,1-.38-2V55.12c0-.42,0-.89.07-1.4a3.18,3.18,0,0,0-.19-1.39V49.8a9.64,9.64,0,0,0-.13-1.52,4.21,4.21,0,0,1-.13-1.08,4.7,4.7,0,0,0-.12-1.08,32.42,32.42,0,0,0-1.08-3.35,7.54,7.54,0,0,0-1.71-2.6,10,10,0,0,0-4.31-2.53,2.13,2.13,0,0,0-.88-.07,1.41,1.41,0,0,1-.89-.19,10.13,10.13,0,0,0-1.2-.19,4.49,4.49,0,0,0-1.33.07,4.79,4.79,0,0,1-1.52.25,5,5,0,0,0-1.52.25,10,10,0,0,0-5.32,3.8,14.4,14.4,0,0,0-2.6,7.29,93.84,93.84,0,0,0-.44,9.56V87a3.06,3.06,0,0,1-.64,2,2.66,2.66,0,0,1-1.83,1.08,17.28,17.28,0,0,1-2.73.19h-6.84c-.76,0-1.5,0-2.21-.06a7.53,7.53,0,0,1-1.84-.32,2.55,2.55,0,0,1-1.46-2,24.73,24.73,0,0,1-.19-3.16V54.1c0-2.44-.08-4.77-.25-7a11.53,11.53,0,0,0-1.65-5.45A6.84,6.84,0,0,0,388,39a17.64,17.64,0,0,0-3.87-1.52,2.86,2.86,0,0,0-1-.06,3.49,3.49,0,0,1-1.14-.07,4.8,4.8,0,0,0-2.66.26,2.22,2.22,0,0,0-.51.06,2.14,2.14,0,0,1-.5.06,12.15,12.15,0,0,0-3.93,2.16,10.8,10.8,0,0,0-3.1,3.48,14.32,14.32,0,0,0-1.52,4.43,34.15,34.15,0,0,0-.51,5.39q-.06,2.91-.06,6.33V86.66a5.12,5.12,0,0,1-.38,2,2.4,2.4,0,0,1-1.9,1.4,17.8,17.8,0,0,1-3.17.25h-6.58c-.85,0-1.67,0-2.47-.06a4,4,0,0,1-2-.57,2.57,2.57,0,0,1-1.2-2.35c0-1.14-.06-2.34-.06-3.61V30.42c0-.93,0-1.75.06-2.47a3.61,3.61,0,0,1,.57-1.84,3.29,3.29,0,0,1,2-1h.76a6.32,6.32,0,0,1,1.33-.13h6.52c.67,0,1.33,0,2,.06a7.12,7.12,0,0,1,1.71.32,2.08,2.08,0,0,1,1.33,1.27,17.31,17.31,0,0,1,.57,2,1.33,1.33,0,0,1,.06.7.61.61,0,0,0,.19.57,1.52,1.52,0,0,0,.32.57c.13.13.27.28.44.44a3,3,0,0,0,2.54-1,14,14,0,0,1,1.9-1.71A37.54,37.54,0,0,1,377.31,26a19.75,19.75,0,0,1,4-1.64,11,11,0,0,1,2.28-.51c.76-.08,1.56-.21,2.4-.38a3.23,3.23,0,0,1,1.14-.06A2.18,2.18,0,0,0,388.14,23.32ZM524.8,85.26a20.38,20.38,0,0,1,.32,2.79,1.79,1.79,0,0,1-1.33,1.9,4,4,0,0,1-1.77.38h-8.87q-1.14,0-2.22-.06a3.11,3.11,0,0,1-1.71-.57,3.25,3.25,0,0,1-1.33-1.46,4.4,4.4,0,0,0-1.2-1.58,2.54,2.54,0,0,0-.63-.45,1.65,1.65,0,0,0-1-.06,6.61,6.61,0,0,0-1.21.63,6.29,6.29,0,0,1-1.2.64,8.28,8.28,0,0,1-1.4.88l-1.51.76a19.57,19.57,0,0,1-3.42,1.21c-1.19.29-2.41.61-3.68,1a9.09,9.09,0,0,1-1.71.31c-.55,0-1.12.11-1.71.19a4,4,0,0,0-.76.07,4.77,4.77,0,0,1-.76.06H486.3a6.34,6.34,0,0,1-2.53,0h-1.14a4.69,4.69,0,0,0-1.71-.19,4,4,0,0,1-1.59-.19c-.84-.17-1.64-.32-2.4-.44a7.7,7.7,0,0,1-2.16-.7,21,21,0,0,1-6.27-3.61,15.2,15.2,0,0,1-4.11-5.89,17.52,17.52,0,0,1-.7-1.9c-.21-.68-.4-1.39-.57-2.15a2.7,2.7,0,0,1-.19-1.27,4.54,4.54,0,0,0-.06-1.27,6.87,6.87,0,0,1-.19-1.58,6.45,6.45,0,0,1,.06-1.71A11.09,11.09,0,0,0,463,68.8c.26-.93.51-1.88.76-2.85a11.1,11.1,0,0,1,1-2.6,16.77,16.77,0,0,1,4.94-5.57,27.58,27.58,0,0,1,7.09-3.3,15.91,15.91,0,0,1,3.42-.88c1.18-.17,2.36-.38,3.55-.64a12,12,0,0,1,2.15-.31,13.75,13.75,0,0,0,2.28-.32,5.1,5.1,0,0,1,1.77-.19,6.08,6.08,0,0,0,1.9-.19,6.38,6.38,0,0,1,1.78-.25,7.86,7.86,0,0,0,1.9-.26c1.77-.42,3.39-.78,4.87-1.07a7.76,7.76,0,0,0,4-2.22,5.63,5.63,0,0,0,1.52-2.53A1.15,1.15,0,0,0,506,45a.69.69,0,0,1,.07-.5,1.85,1.85,0,0,0,.12-.76V43c-.08-.34-.14-.68-.19-1a4.11,4.11,0,0,0-.19-.88,8,8,0,0,0-5.31-5.2,14.46,14.46,0,0,0-2.73-.57,21.61,21.61,0,0,0-3.23-.12,26.23,26.23,0,0,0-3.16.31,16.78,16.78,0,0,0-2.66.64,6.72,6.72,0,0,0-1.46.69c-.47.3-.91.62-1.33.95a8.65,8.65,0,0,0-1.33,1.4,5.58,5.58,0,0,0-.95,1.64c-.42.85-.78,1.65-1.08,2.41a2.52,2.52,0,0,1-1.83,1.52,8.88,8.88,0,0,1-2.16.25h-7.09c-.42,0-.85,0-1.27.07a3.25,3.25,0,0,1-1.14-.07h-1.14a1.48,1.48,0,0,0-.63-.12.84.84,0,0,1-.63-.26,2,2,0,0,1-1.4-1.64,3.39,3.39,0,0,1,0-1.27c.09-.42.17-.8.26-1.14.25-.93.52-1.79.82-2.6a11.06,11.06,0,0,1,1.08-2.21c.25-.42.5-.85.76-1.27L469,33.2a15.28,15.28,0,0,1,2.53-2.66,3.38,3.38,0,0,0,.76-.63c.42-.34.8-.63,1.14-.89s.72-.5,1.14-.76a20.88,20.88,0,0,1,4.56-2.21q2.4-.82,4.94-1.59a18.9,18.9,0,0,1,3.17-.5,23.62,23.62,0,0,0,3.29-.51,5.06,5.06,0,0,1,1.58,0c.72.09,1.16,0,1.33-.13a78.59,78.59,0,0,1,9.95.38A37.56,37.56,0,0,1,512,25.6a21.78,21.78,0,0,1,6.65,3.74,15.41,15.41,0,0,1,4.3,6,14.78,14.78,0,0,1,1,4.94q.12,2.79.12,5.7V79.12a18.43,18.43,0,0,0,.51,4.5,2.66,2.66,0,0,1,.13.82A2.66,2.66,0,0,0,524.8,85.26Zm-18.62-19.5a8.26,8.26,0,0,0,0-2.92,4.36,4.36,0,0,1-.25-1.39,1.21,1.21,0,0,0-.5-1,3,3,0,0,0-1.9-.51c-.34.09-.64.15-.89.19s-.55.11-.89.19a11.83,11.83,0,0,1-1.9.38,17.93,17.93,0,0,0-2,.38,3.7,3.7,0,0,1-1.14.13,22.12,22.12,0,0,1-3.3.5,13.23,13.23,0,0,0-3.16.64c-.68.17-1.31.31-1.9.44a9.94,9.94,0,0,0-1.78.57,11.5,11.5,0,0,0-4.49,3.42q-1.85,2.28-1.33,6.33a6.63,6.63,0,0,0,1.39,3.55,6.09,6.09,0,0,0,2.66,2.22,15.67,15.67,0,0,0,3.86,1.2,17.08,17.08,0,0,0,4.44.19,20.52,20.52,0,0,0,4.37-.82,11,11,0,0,0,5.19-3.23,15.3,15.3,0,0,0,2.91-5.51,9.32,9.32,0,0,0,.32-1.84,10.76,10.76,0,0,1,.31-2Zm69.16-42.44a10.76,10.76,0,0,1,2.47.26,2.83,2.83,0,0,1,1.71,1.14,5.93,5.93,0,0,1,.76,3.48v4.37c0,.93,0,2,.06,3.17a5.69,5.69,0,0,1-.44,2.78,2.25,2.25,0,0,1-1.46,1.14,8.28,8.28,0,0,1-2.15.26,24.94,24.94,0,0,1-2.53-.13,8,8,0,0,0-2.47.13,8.52,8.52,0,0,1-1.78.31,6.91,6.91,0,0,0-1.64.32,19.19,19.19,0,0,0-4.06,1.84,10.72,10.72,0,0,0-3.16,2.72l-1.33,2.09c-.47.72-.91,1.46-1.33,2.22-.26.67-.49,1.37-.7,2.09s-.4,1.41-.57,2.09a6.57,6.57,0,0,0-.25,1.83,6.6,6.6,0,0,1-.26,1.84,2.61,2.61,0,0,0-.06.95,1.85,1.85,0,0,1-.06.82v2a5,5,0,0,0-.13,2,19.05,19.05,0,0,1,.13,2.09V84c0,1.09-.05,2.11-.13,3a4.54,4.54,0,0,1-.76,2.28,1.55,1.55,0,0,1-.82.57,10.17,10.17,0,0,1-1.21.31h-.63a6.7,6.7,0,0,1-1.39.13h-6.84a10.21,10.21,0,0,0-1.58-.13H541c-.43-.17-.85-.31-1.27-.44a1.33,1.33,0,0,1-.89-.82,3.17,3.17,0,0,1-.57-1.84c0-.8-.06-1.63-.06-2.47V28.45a3.46,3.46,0,0,1,.51-2,2.78,2.78,0,0,1,1.9-1.27,16.41,16.41,0,0,1,3-.25h6.46a15.9,15.9,0,0,1,2.65.19,2.55,2.55,0,0,1,1.78,1.2,4,4,0,0,1,.44,1.78c0,.76.11,1.5.19,2.21a8.77,8.77,0,0,0,.44,2,1.2,1.2,0,0,0,1.21.88.75.75,0,0,1,.5-.25.73.73,0,0,0,.51-.25,7.11,7.11,0,0,0,1.33-1.46,6.13,6.13,0,0,1,1.46-1.46,5.31,5.31,0,0,0,.88-.82,5.85,5.85,0,0,1,.89-.82c.76-.51,1.54-1,2.34-1.52s1.63-1,2.47-1.4,1.71-.63,2.6-.88,1.79-.51,2.72-.76a4.47,4.47,0,0,1,1.46-.07C574.73,23.56,575.17,23.49,575.34,23.32ZM605,.91a4.5,4.5,0,0,1,.89,3v7.34A2.78,2.78,0,0,1,605,13.7a3.64,3.64,0,0,1-2,.76c-.81.08-1.67.12-2.6.12h-7.09a22.42,22.42,0,0,1-2.47-.12A3.5,3.5,0,0,1,589,13.7a2.25,2.25,0,0,1-.7-1.46,19.9,19.9,0,0,1-.25-2.41c0-.88,0-1.79,0-2.72s.06-1.73.06-2.4,0-1.29.07-1.84a3.33,3.33,0,0,1,.44-1.46,1.78,1.78,0,0,1,.7-.76c.29-.17.61-.33.95-.5a3.33,3.33,0,0,0,.63-.07,4.11,4.11,0,0,1,.63-.06h9.25a20.62,20.62,0,0,1,2.41.13A2.81,2.81,0,0,1,605,.91Zm.89,82.45c0,1.69,0,3.13-.13,4.31a2.73,2.73,0,0,1-2.28,2.41,4.26,4.26,0,0,1-1.65.19c-.59,0-1.22-.07-1.9-.07h-7.09a20.09,20.09,0,0,1-2.22-.12,2.29,2.29,0,0,1-1.58-.76,3.52,3.52,0,0,1-.82-2.22c-.05-.89-.07-1.84-.07-2.85v-56a3.56,3.56,0,0,1,.51-2,3.57,3.57,0,0,1,2.15-1.14,1.17,1.17,0,0,1,.7-.07,1.11,1.11,0,0,0,.7-.06h6.33q.76,0,1.71-.06a6.48,6.48,0,0,1,1.58.06h1a10.52,10.52,0,0,0,1.39.38,1.52,1.52,0,0,1,1,.76,3,3,0,0,1,.57,1.77c0,.76.07,1.57.07,2.41Zm73.58,1.9a20.38,20.38,0,0,1,.32,2.79,1.79,1.79,0,0,1-1.33,1.9,3.94,3.94,0,0,1-1.77.38H667.8c-.76,0-1.5,0-2.21-.06a3.05,3.05,0,0,1-1.71-.57,3.14,3.14,0,0,1-1.33-1.46,4.54,4.54,0,0,0-1.21-1.58,2.54,2.54,0,0,0-.63-.45,1.65,1.65,0,0,0-1-.06,6.61,6.61,0,0,0-1.21.63,6.29,6.29,0,0,1-1.2.64,8.19,8.19,0,0,1-1.39.88l-1.52.76A19.57,19.57,0,0,1,651,90.27c-1.19.29-2.41.61-3.68,1a9.09,9.09,0,0,1-1.71.31c-.55,0-1.12.11-1.71.19a4,4,0,0,0-.76.07,4.77,4.77,0,0,1-.76.06H641a6.34,6.34,0,0,1-2.53,0h-1.14a4.66,4.66,0,0,0-1.71-.19,4,4,0,0,1-1.59-.19c-.84-.17-1.64-.32-2.4-.44a7.7,7.7,0,0,1-2.16-.7,21,21,0,0,1-6.27-3.61A15.2,15.2,0,0,1,619,80.83a17.52,17.52,0,0,1-.7-1.9c-.21-.68-.4-1.39-.57-2.15a2.7,2.7,0,0,1-.19-1.27,4.54,4.54,0,0,0-.06-1.27,6.87,6.87,0,0,1-.19-1.58,6.45,6.45,0,0,1,.06-1.71,11.09,11.09,0,0,0,.25-2.15c.26-.93.51-1.88.76-2.85a11.1,11.1,0,0,1,1-2.6,16.77,16.77,0,0,1,4.94-5.57,27.58,27.58,0,0,1,7.09-3.3,15.91,15.91,0,0,1,3.42-.88c1.18-.17,2.36-.38,3.55-.64a12,12,0,0,1,2.15-.31,13.75,13.75,0,0,0,2.28-.32,5.1,5.1,0,0,1,1.77-.19,6.08,6.08,0,0,0,1.9-.19,6.38,6.38,0,0,1,1.78-.25,7.86,7.86,0,0,0,1.9-.26c1.77-.42,3.39-.78,4.87-1.07a7.76,7.76,0,0,0,4-2.22,5.63,5.63,0,0,0,1.52-2.53,1.16,1.16,0,0,0,.07-.64.64.64,0,0,1,.06-.5,1.82,1.82,0,0,0,.13-.76V43a7.31,7.31,0,0,1-.19-1,5.83,5.83,0,0,0-.19-.88,8,8,0,0,0-5.32-5.2,14.46,14.46,0,0,0-2.73-.57,21.56,21.56,0,0,0-3.23-.12,26.23,26.23,0,0,0-3.16.31,16.78,16.78,0,0,0-2.66.64,6.72,6.72,0,0,0-1.46.69c-.47.3-.91.62-1.33.95a8.65,8.65,0,0,0-1.33,1.4,5.58,5.58,0,0,0-1,1.64c-.42.85-.78,1.65-1.08,2.41a2.52,2.52,0,0,1-1.83,1.52,8.88,8.88,0,0,1-2.16.25h-7.09c-.42,0-.84,0-1.27.07a3.25,3.25,0,0,1-1.14-.07h-1.14a1.48,1.48,0,0,0-.63-.12.86.86,0,0,1-.63-.26,2,2,0,0,1-1.4-1.64,3.39,3.39,0,0,1,0-1.27c.09-.42.17-.8.26-1.14.25-.93.52-1.79.82-2.6a11.63,11.63,0,0,1,1.08-2.21c.25-.42.5-.85.76-1.27l.76-1.27a15.28,15.28,0,0,1,2.53-2.66,3.38,3.38,0,0,0,.76-.63c.42-.34.8-.63,1.14-.89s.72-.5,1.14-.76a21.33,21.33,0,0,1,4.56-2.21q2.4-.82,4.94-1.59a18.9,18.9,0,0,1,3.17-.5,23.62,23.62,0,0,0,3.29-.51,5.06,5.06,0,0,1,1.58,0c.72.09,1.16,0,1.33-.13a78.59,78.59,0,0,1,10,.38,37.56,37.56,0,0,1,8.61,1.9,21.78,21.78,0,0,1,6.65,3.74,15.31,15.31,0,0,1,4.3,6,14.78,14.78,0,0,1,1,4.94c.08,1.86.13,3.76.13,5.7V79.12a18.45,18.45,0,0,0,.5,4.5,2.66,2.66,0,0,1,.13.82A2.66,2.66,0,0,0,679.45,85.26Zm-18.61-19.5a8.94,8.94,0,0,0,0-2.92,4.39,4.39,0,0,1-.26-1.39,1.21,1.21,0,0,0-.5-1,3,3,0,0,0-1.9-.51c-.34.09-.64.15-.89.19s-.55.11-.89.19a11.83,11.83,0,0,1-1.9.38,17.93,17.93,0,0,0-2,.38,3.7,3.7,0,0,1-1.14.13,22.12,22.12,0,0,1-3.3.5,13.23,13.23,0,0,0-3.16.64c-.68.17-1.31.31-1.9.44a9.94,9.94,0,0,0-1.78.57,11.5,11.5,0,0,0-4.49,3.42q-1.85,2.28-1.33,6.33a6.71,6.71,0,0,0,1.39,3.55,6.09,6.09,0,0,0,2.66,2.22,15.67,15.67,0,0,0,3.86,1.2,17.08,17.08,0,0,0,4.44.19,20.52,20.52,0,0,0,4.37-.82,11,11,0,0,0,5.19-3.23,15.15,15.15,0,0,0,2.91-5.51,8.64,8.64,0,0,0,.32-1.84,10.81,10.81,0,0,1,.32-2ZM730,23.32c5.07-.16,9.29.55,12.67,2.16a18.66,18.66,0,0,1,8,7.09,12.86,12.86,0,0,1,1.39,3c.34,1.05.68,2.13,1,3.23a10.77,10.77,0,0,1,.32,1.9,8.45,8.45,0,0,0,.32,1.77,2.7,2.7,0,0,0,.12,1,25.92,25.92,0,0,1,.26,3.68V82.6c0,1.61,0,3.15-.07,4.63a2.79,2.79,0,0,1-1.83,2.85,5.63,5.63,0,0,1-1.78.25h-8.86a17.28,17.28,0,0,1-2.73-.19A2.66,2.66,0,0,1,737,89.06a3.78,3.78,0,0,1-.57-2c0-.8-.07-1.67-.07-2.6V56.76q0-4.68-.37-8.67a14.38,14.38,0,0,0-2.28-6.78,9.38,9.38,0,0,0-5.2-3.55,3.7,3.7,0,0,0-1.33-.25,4.51,4.51,0,0,1-1.45-.25,6,6,0,0,0-1.59-.07,10.15,10.15,0,0,0-1.45.19,3.53,3.53,0,0,1-.89.13,2.25,2.25,0,0,0-.76.13,14.2,14.2,0,0,0-4.69,2,12,12,0,0,0-4.81,8.49,93,93,0,0,0-.76,12.54V86.53a4.29,4.29,0,0,1-.38,1.9,2.67,2.67,0,0,1-2,1.65,19.47,19.47,0,0,1-3.42.25h-6.33c-.93,0-1.86,0-2.79-.13a2.83,2.83,0,0,1-2-.88,5.06,5.06,0,0,1-.83-3.3c0-1.43.07-2.78.07-4V30.42c0-.93,0-1.78.06-2.54a3.1,3.1,0,0,1,.7-1.9,1.52,1.52,0,0,1,.82-.57,10.51,10.51,0,0,1,1.2-.31h.64a6.32,6.32,0,0,1,1.33-.13h6.65c.67,0,1.33,0,2,.06a7.22,7.22,0,0,1,1.71.32,2.11,2.11,0,0,1,1.2,1.14,13.2,13.2,0,0,1,.57,1.77,2.18,2.18,0,0,1,.07.89,1,1,0,0,0,.19.76,1.69,1.69,0,0,0,.44.76l.57.38a2.48,2.48,0,0,0,2.28-.95,7.73,7.73,0,0,1,1.9-1.71,29.58,29.58,0,0,1,7.6-4.05,11,11,0,0,1,2.34-.51c.8-.08,1.67-.21,2.6-.38a3.19,3.19,0,0,1,1.14-.06A2.13,2.13,0,0,0,730,23.32Zm97.28,61.94a22,22,0,0,1,.31,2.79,1.79,1.79,0,0,1-1.33,1.9,3.94,3.94,0,0,1-1.77.38h-8.87c-.76,0-1.5,0-2.21-.06a3.05,3.05,0,0,1-1.71-.57,3.2,3.2,0,0,1-1.33-1.46,4.54,4.54,0,0,0-1.21-1.58,2.54,2.54,0,0,0-.63-.45,1.65,1.65,0,0,0-1-.06,6.61,6.61,0,0,0-1.21.63,6.29,6.29,0,0,1-1.2.64,8.19,8.19,0,0,1-1.39.88l-1.52.76a19.57,19.57,0,0,1-3.42,1.21c-1.19.29-2.41.61-3.68,1a9.09,9.09,0,0,1-1.71.31c-.55,0-1.12.11-1.71.19a4,4,0,0,0-.76.07,4.77,4.77,0,0,1-.76.06h-1.39a6.34,6.34,0,0,1-2.53,0h-1.14a4.64,4.64,0,0,0-1.71-.19,4,4,0,0,1-1.59-.19c-.84-.17-1.64-.32-2.4-.44a7.7,7.7,0,0,1-2.16-.7A20.82,20.82,0,0,1,771,86.72a15.12,15.12,0,0,1-4.12-5.89,19.91,19.91,0,0,1-.7-1.9c-.21-.68-.4-1.39-.57-2.15a2.7,2.7,0,0,1-.19-1.27,4.54,4.54,0,0,0-.06-1.27A10.68,10.68,0,0,1,765.2,71a11.2,11.2,0,0,0,.26-2.15l.76-2.85a10.67,10.67,0,0,1,1-2.6,16.77,16.77,0,0,1,4.94-5.57,27.58,27.58,0,0,1,7.09-3.3,15.91,15.91,0,0,1,3.42-.88c1.18-.17,2.36-.38,3.55-.64a12,12,0,0,1,2.15-.31,13.75,13.75,0,0,0,2.28-.32,5.1,5.1,0,0,1,1.77-.19,6.08,6.08,0,0,0,1.9-.19,6.43,6.43,0,0,1,1.78-.25,7.86,7.86,0,0,0,1.9-.26c1.77-.42,3.4-.78,4.87-1.07a7.76,7.76,0,0,0,4-2.22,5.63,5.63,0,0,0,1.52-2.53,1.16,1.16,0,0,0,.07-.64.64.64,0,0,1,.06-.5,1.82,1.82,0,0,0,.13-.76V43a7.31,7.31,0,0,1-.19-1,5.83,5.83,0,0,0-.19-.88,8,8,0,0,0-5.32-5.2,14.46,14.46,0,0,0-2.73-.57,21.56,21.56,0,0,0-3.23-.12,26.43,26.43,0,0,0-3.16.31,16.78,16.78,0,0,0-2.66.64,6.72,6.72,0,0,0-1.46.69c-.46.3-.91.62-1.33.95a8.65,8.65,0,0,0-1.33,1.4,5.81,5.81,0,0,0-.95,1.64c-.42.85-.78,1.65-1.08,2.41a2.5,2.5,0,0,1-1.83,1.52A8.88,8.88,0,0,1,781,45h-7.09c-.42,0-.84,0-1.26.07a3.29,3.29,0,0,1-1.15-.07h-1.14a1.48,1.48,0,0,0-.63-.12.86.86,0,0,1-.63-.26A2,2,0,0,1,767.74,43a3,3,0,0,1,0-1.27c.08-.42.16-.8.25-1.14.25-.93.52-1.79.82-2.6a11.63,11.63,0,0,1,1.08-2.21c.25-.42.5-.85.76-1.27s.51-.84.76-1.27a15.28,15.28,0,0,1,2.53-2.66,3.38,3.38,0,0,0,.76-.63c.42-.34.8-.63,1.14-.89s.72-.5,1.14-.76a21.33,21.33,0,0,1,4.56-2.21q2.4-.82,4.94-1.59a18.9,18.9,0,0,1,3.17-.5,23.62,23.62,0,0,0,3.29-.51,5.07,5.07,0,0,1,1.58,0c.72.09,1.16,0,1.33-.13a78.52,78.52,0,0,1,9.95.38,37.56,37.56,0,0,1,8.61,1.9,21.78,21.78,0,0,1,6.65,3.74,15.43,15.43,0,0,1,4.31,6,14.79,14.79,0,0,1,1,4.94c.08,1.86.13,3.76.13,5.7V79.12a18.45,18.45,0,0,0,.5,4.5,2.39,2.39,0,0,1,.13.82A2.39,2.39,0,0,0,827.27,85.26Zm-18.62-19.5a8.94,8.94,0,0,0,0-2.92,4.39,4.39,0,0,1-.26-1.39,1.21,1.21,0,0,0-.5-1,3,3,0,0,0-1.9-.51c-.34.09-.64.15-.89.19s-.55.11-.89.19a11.83,11.83,0,0,1-1.9.38,17.93,17.93,0,0,0-2,.38,3.7,3.7,0,0,1-1.14.13,22.12,22.12,0,0,1-3.3.5,13.33,13.33,0,0,0-3.16.64c-.68.17-1.31.31-1.9.44a10.21,10.21,0,0,0-1.78.57,11.5,11.5,0,0,0-4.49,3.42q-1.85,2.28-1.33,6.33a6.71,6.71,0,0,0,1.39,3.55,6.09,6.09,0,0,0,2.66,2.22,15.67,15.67,0,0,0,3.86,1.2,17.08,17.08,0,0,0,4.44.19,20.4,20.4,0,0,0,4.37-.82,11,11,0,0,0,5.19-3.23A15.15,15.15,0,0,0,808,70.7a8.64,8.64,0,0,0,.32-1.84,10.81,10.81,0,0,1,.32-2ZM880,0h9.24a20.5,20.5,0,0,1,2.41.13,2.79,2.79,0,0,1,1.77.76,3.76,3.76,0,0,1,.83,2.34c0,1,.06,2,.06,3V82.35q0,1.52.06,3.48a5.4,5.4,0,0,1-.57,3,3.4,3.4,0,0,1-2.28,1.39,3.81,3.81,0,0,1-1.71.13,14.59,14.59,0,0,0-1.83-.13h-6.08a24.47,24.47,0,0,1-2.54-.12,3.57,3.57,0,0,1-1.9-.76,2.62,2.62,0,0,1-.82-2c0-.88-.06-1.79-.06-2.72v-76c0-1.09,0-2.4-.07-3.92a6.21,6.21,0,0,1,.57-3.3,1.78,1.78,0,0,1,.7-.76c.29-.17.61-.33,1-.5a3.25,3.25,0,0,0,.63-.07A4.34,4.34,0,0,1,880,0Zm46.1.89A4.5,4.5,0,0,1,927,4v7.34a2.78,2.78,0,0,1-.89,2.41,3.64,3.64,0,0,1-2,.76c-.81.08-1.67.12-2.6.12h-7.09a22.42,22.42,0,0,1-2.47-.12,3.5,3.5,0,0,1-1.84-.76,2.25,2.25,0,0,1-.7-1.46,19.9,19.9,0,0,1-.25-2.41c0-.88,0-1.79,0-2.72s.06-1.73.06-2.4,0-1.29.07-1.84a3.33,3.33,0,0,1,.44-1.46,1.78,1.78,0,0,1,.7-.76c.29-.17.61-.33,1-.5A3.25,3.25,0,0,0,912,.08a4.11,4.11,0,0,1,.63-.06h9.25a20.62,20.62,0,0,1,2.41.13A2.79,2.79,0,0,1,926.06.91ZM927,83.36c0,1.69-.05,3.13-.13,4.31s-.84,2-2.28,2.41a4.26,4.26,0,0,1-1.65.19c-.59,0-1.22-.07-1.9-.07H913.9a20.09,20.09,0,0,1-2.22-.12,2.31,2.31,0,0,1-1.58-.76,3.52,3.52,0,0,1-.82-2.22c0-.89-.07-1.84-.07-2.85v-56a3.56,3.56,0,0,1,.51-2,3.57,3.57,0,0,1,2.15-1.14,1.17,1.17,0,0,1,.7-.07,1.1,1.1,0,0,0,.7-.06h6.33q.76,0,1.71-.06a6.48,6.48,0,0,1,1.58.06h1a10.52,10.52,0,0,0,1.39.38,1.52,1.52,0,0,1,1,.76,3,3,0,0,1,.57,1.77c0,.76.07,1.57.07,2.41Zm51.67-60a24.88,24.88,0,0,1,8.24,1,20.7,20.7,0,0,1,6.2,3.16,10.32,10.32,0,0,1,1.84,1.78,25.9,25.9,0,0,0,1.84,2,8.37,8.37,0,0,0,.82.7,1.13,1.13,0,0,0,1.2.19,5.44,5.44,0,0,0,2.66-1.84,12.44,12.44,0,0,1,2.41-2.21,19.86,19.86,0,0,1,3.8-2.35,49.07,49.07,0,0,1,4.56-1.83,22.86,22.86,0,0,1,2.47-.45c1-.12,2-.21,3-.25a25.37,25.37,0,0,1,3,.06,23,23,0,0,1,2.6.38,5.46,5.46,0,0,0,1.14.13,3.37,3.37,0,0,1,1.14.25q1.77.51,3.42,1a12.73,12.73,0,0,1,3,1.39,20.2,20.2,0,0,1,8,9.63,12.29,12.29,0,0,1,.76,2.34c.16.8.33,1.58.5,2.34.09.6.15,1.14.19,1.65s.11,1,.19,1.52v1.27a7.64,7.64,0,0,1,.07,1.77c0,.68-.07,1.31-.07,1.9V81c0,.67,0,1.45.07,2.34s0,1.73,0,2.53a13.33,13.33,0,0,1-.32,2.28,2.47,2.47,0,0,1-.76,1.46,3.31,3.31,0,0,1-2,.7c-.81,0-1.67.06-2.6.06h-6.71a17.72,17.72,0,0,1-3.17-.25,2.4,2.4,0,0,1-1.9-1.4,5,5,0,0,1-.38-2V55.12c0-.42,0-.89.06-1.4a3,3,0,0,0-.19-1.39V49.8a9.64,9.64,0,0,0-.12-1.52,4.21,4.21,0,0,1-.13-1.08,4.21,4.21,0,0,0-.13-1.08,32.55,32.55,0,0,0-1.07-3.35,7.54,7.54,0,0,0-1.71-2.6,10.07,10.07,0,0,0-4.31-2.53,2.17,2.17,0,0,0-.89-.07,1.39,1.39,0,0,1-.88-.19,10,10,0,0,0-1.21-.19,4.51,4.51,0,0,0-1.33.07,4.7,4.7,0,0,1-1.52.25,5.09,5.09,0,0,0-1.52.25,10,10,0,0,0-5.32,3.8,14.49,14.49,0,0,0-2.59,7.29,93.69,93.69,0,0,0-.45,9.56V87a3.05,3.05,0,0,1-.63,2,2.66,2.66,0,0,1-1.84,1.08,17.15,17.15,0,0,1-2.72.19h-6.84q-1.14,0-2.22-.06a7.44,7.44,0,0,1-1.83-.32,2.53,2.53,0,0,1-1.46-2,23,23,0,0,1-.19-3.16V54.1c0-2.44-.08-4.77-.25-7A11.53,11.53,0,0,0,981,41.69a6.86,6.86,0,0,0-2.6-2.66,17.35,17.35,0,0,0-3.86-1.52,2.88,2.88,0,0,0-1-.06,3.49,3.49,0,0,1-1.14-.07,4.8,4.8,0,0,0-2.66.26,2.22,2.22,0,0,0-.51.06,2.22,2.22,0,0,1-.51.06,12.11,12.11,0,0,0-3.92,2.16,10.8,10.8,0,0,0-3.1,3.48,14.32,14.32,0,0,0-1.52,4.43,34.15,34.15,0,0,0-.51,5.39q-.06,2.91-.06,6.33V86.66a5.12,5.12,0,0,1-.38,2,2.42,2.42,0,0,1-1.9,1.4,17.8,17.8,0,0,1-3.17.25h-6.59c-.84,0-1.67,0-2.47-.06a4,4,0,0,1-2-.57,2.57,2.57,0,0,1-1.2-2.35c-.05-1.14-.07-2.34-.07-3.61V30.42c0-.93,0-1.75.07-2.47a3.61,3.61,0,0,1,.57-1.84,3.26,3.26,0,0,1,2-1h.76a6.38,6.38,0,0,1,1.33-.13h6.53c.67,0,1.33,0,2,.06a7.22,7.22,0,0,1,1.71.32,2.1,2.1,0,0,1,1.33,1.27,17.31,17.31,0,0,1,.57,2,1.44,1.44,0,0,1,.06.7.61.61,0,0,0,.19.57,1.4,1.4,0,0,0,.32.57l.44.44a3,3,0,0,0,2.54-1,13.47,13.47,0,0,1,1.9-1.71A37.54,37.54,0,0,1,967.8,26a19.9,19.9,0,0,1,4-1.64,11,11,0,0,1,2.28-.51c.76-.08,1.57-.21,2.41-.38a3.19,3.19,0,0,1,1.14-.06A2.13,2.13,0,0,0,978.62,23.32Zm143,33.82a7.16,7.16,0,0,1-.25,2.16v1.26a6.67,6.67,0,0,0-.19,2,6.67,6.67,0,0,1-.19,2,16.37,16.37,0,0,0-.38,1.64c-.08.51-.17,1.06-.25,1.65-.34.93-.64,1.88-.89,2.85a13.75,13.75,0,0,1-1,2.72,27.78,27.78,0,0,1-7,9.88,37,37,0,0,1-10.38,6.34,17.4,17.4,0,0,1-3.11,1c-1,.21-2.13.44-3.23.69a3.66,3.66,0,0,1-1.39.26,7.42,7.42,0,0,0-1.39.12,5,5,0,0,0-.83.07,6.09,6.09,0,0,1-.82.06,17.3,17.3,0,0,1-2,.19,6.23,6.23,0,0,1-2.15-.19h-1.27a4.18,4.18,0,0,0-1.33-.06,3,3,0,0,1-1.33-.19,3.67,3.67,0,0,0-1-.13,5.22,5.22,0,0,1-1.07-.13c-.85-.25-1.69-.46-2.54-.63a11.38,11.38,0,0,1-2.4-.76c-1-.34-2-.68-2.85-1a22,22,0,0,1-2.73-1.27,32.41,32.41,0,0,1-7.6-6.21,31.63,31.63,0,0,1-5.32-8.48,10,10,0,0,1-1-2.41c-.21-.84-.44-1.73-.69-2.66a3.09,3.09,0,0,1-.26-1.14,3.06,3.06,0,0,0-.25-1.14,8.54,8.54,0,0,1-.25-2.09,8.55,8.55,0,0,0-.26-2.09,6.15,6.15,0,0,1-.12-1.14V59.17a6,6,0,0,1-.19-2.15,8.31,8.31,0,0,1,.31-2.16V54a4.51,4.51,0,0,0,.07-1.33,2.72,2.72,0,0,1,.19-1.33,6.52,6.52,0,0,0,.12-1.21,3.21,3.21,0,0,1,.26-1.2c.33-1.1.63-2.17.88-3.23a20.44,20.44,0,0,1,1-3.1,31.78,31.78,0,0,1,5.44-8.68,38.35,38.35,0,0,1,7.73-6.4,25.63,25.63,0,0,1,2.66-1.14q1.39-.49,2.79-1.14a15.62,15.62,0,0,1,3.42-.88,31.6,31.6,0,0,0,3.67-.76,14.34,14.34,0,0,1,1.9-.13,11.71,11.71,0,0,0,1.77-.13,41.66,41.66,0,0,1,12.73,1.52,34,34,0,0,1,9.56,4.56c.93.68,1.88,1.42,2.86,2.22a14.28,14.28,0,0,1,2.46,2.6,31,31,0,0,1,1.84,2.53c.55.85,1.12,1.73,1.71,2.66a12.46,12.46,0,0,1,1.39,3c.34,1,.72,2.17,1.14,3.35a15.53,15.53,0,0,1,.64,2.16l.51,2.28a4.36,4.36,0,0,1,.12,1,3.83,3.83,0,0,0,.13,1,2.52,2.52,0,0,1,.12,1.4,2.58,2.58,0,0,0,.13,1.39A7.09,7.09,0,0,1,1121.62,57.14ZM1105,.08a.68.68,0,0,0-.5.07,6.32,6.32,0,0,0-1.52.63,6.49,6.49,0,0,0-1.46,1.39,4.74,4.74,0,0,1-1.46,1.27,3,3,0,0,1-1.2.44,10.18,10.18,0,0,0-1.46.32,3.61,3.61,0,0,1-1.64.12c-.68-.16-1.31-.29-1.9-.37a9.47,9.47,0,0,1-1.9-.51,39.16,39.16,0,0,1-4.25-1.52A32.83,32.83,0,0,0,1083.25.4a9.65,9.65,0,0,0-3-.32,19.86,19.86,0,0,0-3,.32,5.07,5.07,0,0,1-1.33.32,4.53,4.53,0,0,0-1.33.31A14.45,14.45,0,0,0,1067,8.57c-.33.8-.67,1.67-1,2.59a4.44,4.44,0,0,0-.38,1.27,2.48,2.48,0,0,0,.13,1.39,2.77,2.77,0,0,0,2.15,1.34,5,5,0,0,0,3-.32,3.85,3.85,0,0,0,1.71-1.33c.46-.64.91-1.2,1.33-1.71l.38-.38a4.86,4.86,0,0,0,.89-.57,3.78,3.78,0,0,1,1-.57,2.1,2.1,0,0,0,.89-.13,4.06,4.06,0,0,1,2,0,8.39,8.39,0,0,0,1.71.32,9.09,9.09,0,0,1,1.71.31c1.18.43,2.39.83,3.61,1.21s2.43.78,3.61,1.2a11,11,0,0,0,1.84.32,12,12,0,0,1,1.84.31,11.47,11.47,0,0,0,3.29.38,10.24,10.24,0,0,0,3.17-.38,13.68,13.68,0,0,0,3.8-1.51,11,11,0,0,0,3.16-3.24A35.47,35.47,0,0,0,1109.21,5a2.32,2.32,0,0,0,.19-.64,1.87,1.87,0,0,1,.32-.75c.42-1.52.19-2.52-.7-3a6.72,6.72,0,0,0-3.48-.57A.7.7,0,0,1,1105,.08Zm-1.26,57.63a10.29,10.29,0,0,0-.13-1.83v-1a3.66,3.66,0,0,1-.25-1.39,7.38,7.38,0,0,0-.13-1.39,1.67,1.67,0,0,0-.13-.76c-.17-.68-.31-1.37-.44-2.09a12.16,12.16,0,0,0-.57-2.09,23.46,23.46,0,0,0-3.29-5.64,13.33,13.33,0,0,0-5.07-3.74c-.51-.16-1-.31-1.52-.44s-1.06-.27-1.65-.44a7.19,7.19,0,0,0-2.15-.19q-1.14.06-2.28.06a1.27,1.27,0,0,1-.89.19,2.07,2.07,0,0,0-.88.06q-.9.26-1.71.45a4.64,4.64,0,0,0-1.46.57,12.75,12.75,0,0,0-5.13,4,20.7,20.7,0,0,0-3.1,6,16.3,16.3,0,0,0-.57,2.66q-.2,1.4-.45,2.79a6.83,6.83,0,0,0-.12,1.27V56a8.91,8.91,0,0,0-.19,2.66,11.76,11.76,0,0,0,.31,2.66v1.14a16.61,16.61,0,0,1,.38,2,19.25,19.25,0,0,0,.38,2,29.19,29.19,0,0,0,2.73,6.14,13.35,13.35,0,0,0,4.62,4.25,7.73,7.73,0,0,0,2,1,20.21,20.21,0,0,0,2.22.63,2.17,2.17,0,0,0,.89.07,2.11,2.11,0,0,1,.88.06,8.66,8.66,0,0,0,1.08.19,3.22,3.22,0,0,0,1.08-.06h1a15.76,15.76,0,0,1,2-.38,7.5,7.5,0,0,0,1.9-.51,14.13,14.13,0,0,0,5.32-3.42,18.74,18.74,0,0,0,3.42-5.32,15.21,15.21,0,0,0,.76-2.53c.16-.85.38-1.73.63-2.66a4.23,4.23,0,0,0,.13-1,4.05,4.05,0,0,1,.12-.95V60.75a5.71,5.71,0,0,1,.13-1.2A10.34,10.34,0,0,0,1103.77,57.71Zm91.57-.69a5.14,5.14,0,0,1,0,2.28,2.32,2.32,0,0,1-.89,1.64,3.87,3.87,0,0,1-1.83.7,22.73,22.73,0,0,1-2.66.25,28.44,28.44,0,0,1-2.92,0c-1,0-1.83-.06-2.59-.06h-32.62a3.83,3.83,0,0,0-1.45.25,2.74,2.74,0,0,0-1.27,1,2.67,2.67,0,0,0-.51.95,2.37,2.37,0,0,0-.12,1.33,6.74,6.74,0,0,1,.31,1.45,6.3,6.3,0,0,0,.32,1.46,17.53,17.53,0,0,0,2.47,5,13.63,13.63,0,0,0,4,3.49,5.88,5.88,0,0,0,2.09.82,16.88,16.88,0,0,1,2.22.57,16.33,16.33,0,0,0,2.78.38,11.65,11.65,0,0,0,3-.13h1.14c.84-.17,1.63-.36,2.35-.57s1.41-.44,2.09-.69a32.35,32.35,0,0,0,2.84-1.65,8.92,8.92,0,0,0,2.35-2c.42-.59.86-1.16,1.33-1.71a4,4,0,0,1,1.71-1.2,6.76,6.76,0,0,1,3.23-.57c1.31,0,2.51.06,3.61.06.5,0,1,0,1.58-.06a3.26,3.26,0,0,1,1.46.19h1.26a4.73,4.73,0,0,1,1.78.63A1.29,1.29,0,0,1,1193,72a3.44,3.44,0,0,1-.19,1.52,22.45,22.45,0,0,1-1.4,3.17,24,24,0,0,1-1.77,2.79,25.69,25.69,0,0,1-6.33,6.71,33.62,33.62,0,0,1-8.87,4.31,11.72,11.72,0,0,1-2.78.63,17.74,17.74,0,0,0-2.92.51,3.22,3.22,0,0,1-1.08.06,2.91,2.91,0,0,0-1.07.06h-1.39a3.26,3.26,0,0,1-1.46.19,10.86,10.86,0,0,1-1.46-.19,6.53,6.53,0,0,0-1.77,0,3.78,3.78,0,0,1-1.65-.12,3.66,3.66,0,0,0-1.39-.26,3.75,3.75,0,0,1-1.4-.25c-.92-.17-1.85-.36-2.78-.57a9.54,9.54,0,0,1-2.53-1l-2.6-.95a12,12,0,0,1-2.22-1.08,36.36,36.36,0,0,1-7.22-5.89,28.35,28.35,0,0,1-5.19-7.79,17.26,17.26,0,0,1-1-2.85,23.78,23.78,0,0,0-1-3,4.19,4.19,0,0,1-.12-1,4.16,4.16,0,0,0-.13-1,13.14,13.14,0,0,1-.63-3.3c-.09-1.18-.17-2.36-.26-3.54,0-.43,0-.89-.06-1.4a5.25,5.25,0,0,1,.06-1.39V55l.38-3c.34-1.43.64-2.83.89-4.18a17.66,17.66,0,0,1,1.14-3.8,33.12,33.12,0,0,1,18.49-18.62,16.41,16.41,0,0,1,3.61-1.08c1.23-.2,2.51-.48,3.87-.82a16.11,16.11,0,0,1,1.9-.13,16,16,0,0,0,1.89-.12,32.18,32.18,0,0,1,11.09,1.46,33.59,33.59,0,0,1,8.29,4.11,28.21,28.21,0,0,1,2.28,1.71,18.09,18.09,0,0,1,2,2,2.9,2.9,0,0,0,1,1c.68.93,1.31,1.88,1.9,2.85s1.23,2,1.9,3a16.56,16.56,0,0,1,1.08,2.35c.3.8.61,1.67,1,2.59a22.86,22.86,0,0,1,1,3.42c.26,1.19.55,2.37.89,3.55a7.57,7.57,0,0,1,.19,2.22,7.47,7.47,0,0,0,.19,2.21Zm-19-7.48a3.18,3.18,0,0,0,.19-3.1c-.46-1.22-.82-2.13-1.08-2.72a13.28,13.28,0,0,0-4.68-5.26,16,16,0,0,0-8.11-2,1,1,0,0,1-.88.12,1.67,1.67,0,0,0-.89,0,4.78,4.78,0,0,1-1.4.32,4.71,4.71,0,0,0-1.39.32,13.5,13.5,0,0,0-8.23,7c-.17.34-.36.79-.57,1.33a7.76,7.76,0,0,0-.44,1.65,3.8,3.8,0,0,0,.06,1.58,2.33,2.33,0,0,0,.82,1.27,5.29,5.29,0,0,0,2.79.63H1170c1.18,0,2.42,0,3.73-.06A3,3,0,0,0,1176.34,49.54Zm54.59-26.34a48.31,48.31,0,0,1,16.53,2.09,19.61,19.61,0,0,1,10.7,8,28.59,28.59,0,0,1,1.59,2.85,21.33,21.33,0,0,1,1.2,3.23,5.19,5.19,0,0,1,.25,1.65,4.07,4.07,0,0,1-.25,1.52,2.46,2.46,0,0,1-1.39,1,4.1,4.1,0,0,1-1.52.25h-7.35c-.59,0-1.18,0-1.77.07a4.24,4.24,0,0,1-1.65-.19,3.19,3.19,0,0,1-1.9-1,13.46,13.46,0,0,1-1.14-1.58,16.44,16.44,0,0,1-1-1.77,4.08,4.08,0,0,0-1.33-1.59,10.8,10.8,0,0,0-2.47-1.52,17.11,17.11,0,0,0-3-.88,13.24,13.24,0,0,0-2.59-.38,8.07,8.07,0,0,0-2.6.12h-.89a11.41,11.41,0,0,1-1.2.19c-.38.05-.78.11-1.2.19a10.24,10.24,0,0,0-3.49,1.71,5.67,5.67,0,0,0-1.83,3.23,2.73,2.73,0,0,0,0,1.65,9.91,9.91,0,0,0,.5,1.27,7.84,7.84,0,0,0,2.09,2.4,12,12,0,0,0,2.85,1.52A34.15,34.15,0,0,0,1233.4,49q2.85.7,5.83,1.27t5.82,1.27a39.05,39.05,0,0,1,5.39,1.71,17.73,17.73,0,0,0,2.21.82,8.33,8.33,0,0,1,2.09,1,31.59,31.59,0,0,1,4.37,3.29,12.56,12.56,0,0,1,3.11,4.44,15.62,15.62,0,0,1,.63,1.77c.17.59.34,1.22.51,1.9.08.51.14,1.29.19,2.34a14,14,0,0,1-.07,2.47v.64a6.19,6.19,0,0,0-.31,1.45c-.05.47-.11.91-.19,1.33a21,21,0,0,1-2.79,6.72,17.35,17.35,0,0,1-4.94,4.94,34.64,34.64,0,0,1-6.59,3.29,11.75,11.75,0,0,1-3,.89c-1.06.16-2.09.38-3.11.63a15,15,0,0,1-2.34.32,13.87,13.87,0,0,0-2.34.31h-2.28a13.13,13.13,0,0,1-5.2,0,6.21,6.21,0,0,1-.82-.06,5.77,5.77,0,0,0-.95-.06c-1-.17-2-.3-3-.38a17,17,0,0,1-2.91-.51,54,54,0,0,1-8.74-3.23A17,17,0,0,1,1207.5,82a24.8,24.8,0,0,1-3-5.57,17.94,17.94,0,0,1-.51-2,7.21,7.21,0,0,1-.38-1.77,4.53,4.53,0,0,1,.13-1.9,2.3,2.3,0,0,1,1.27-1.27,4,4,0,0,1,1.52-.25h9.88a5.6,5.6,0,0,1,1.77.25,2.86,2.86,0,0,1,1.83,1.65q.45,1.14,1.08,2.4a9.38,9.38,0,0,0,1,1.65,3.88,3.88,0,0,0,1.2,1.27,15.53,15.53,0,0,0,2.92,2,22.21,22.21,0,0,0,3.54,1.33,2.7,2.7,0,0,0,1.27.19,4.54,4.54,0,0,1,1.27.06,7.15,7.15,0,0,0,2.21.19,9.23,9.23,0,0,0,2.09-.31,5.87,5.87,0,0,1,1.21-.13,3.19,3.19,0,0,0,1.2-.25,18.17,18.17,0,0,0,3.23-1.52,7.09,7.09,0,0,0,2.34-2.28,9.23,9.23,0,0,0,1-3.17,2.89,2.89,0,0,0,0-1.65,9.6,9.6,0,0,0-.51-1.26,6.6,6.6,0,0,0-2.22-2.66,19.42,19.42,0,0,0-3.1-1.65,32.34,32.34,0,0,0-5.07-1.65q-2.65-.63-5.32-1.39a15.44,15.44,0,0,0-2.09-.38,16,16,0,0,1-2.09-.38q-4-1.14-7.72-2.22a22.22,22.22,0,0,1-6.72-3.23,14.58,14.58,0,0,1-5.19-6.84,20.68,20.68,0,0,1-.5-2.4,11.86,11.86,0,0,1-.39-2.16,6.75,6.75,0,0,1,.13-2.28,1.69,1.69,0,0,0,.13-1.07,1.59,1.59,0,0,1,.13-1.08c.16-.93.35-1.79.56-2.6a16.05,16.05,0,0,1,5.39-8.29,24.94,24.94,0,0,1,6.58-3.68,14,14,0,0,1,2.92-.94c1-.21,2.07-.45,3.16-.7a6.45,6.45,0,0,1,1.52-.32c.51,0,1-.1,1.52-.19a18.44,18.44,0,0,1,2.16-.13A18.33,18.33,0,0,0,1230.93,23.2Z"/></g></g></svg>